<svg xmlns="http://www.w3.org/2000/svg" viewBox="0 0 500 500">
	<title>Melonbug</title>
  <circle cx="250" cy="250" r="250"/>
  <path fill="#fff" d="M344.7 232.6c-15.5-32.3-41.4-54.4-73.1-62.3-64.4-16-132.2 33-151.1 109.2-19 76.2 17.9 151.3 82.3 167.3 8.3 2.1 16.7 3.1 25.1 3.1 23.7 0 47.4-8.1 68.7-23.8 27.9-20.6 48.3-52.1 57.4-88.5 8.9-36.3 5.6-73.7-9.3-105zm-16.1 98.6c-12.7 51.5-54.2 88.9-98.8 88.9-6.6 0-13.1-.8-19.5-2.4-24.8-6.2-45.1-23.7-57.2-49.2-11.7-24.8-14.3-54.3-7.2-83.1 12.7-51.5 54.2-88.9 98.8-88.9 6.6 0 13.1.8 19.5 2.4 24.8 6.2 45.1 23.7 57.2 49.2 11.7 24.7 14.3 54.2 7.2 83.1zM313.1 252c-10.9-23-29-38.7-51.1-44.2-5.6-1.4-11.4-2.1-17.3-2.1-40.4 0-78.2 34.4-89.9 81.9-6.6 26.8-4.3 54.1 6.6 77 10.9 23 29 38.7 51.1 44.2 5.6 1.4 11.4 2.1 17.3 2.1 40.4 0 78.2-34.4 89.9-81.9 6.5-26.8 4.2-54.1-6.6-77zm-130.4 41.7c.7-3.2 8.6-4.1 17.6-2 9 2.1 15.7 6.3 15 9.5-.7 3.2-8.6 4.1-17.6 2-9.1-2-15.8-6.3-15-9.5zm22.2 61.2c-8.9 2.4-16.8 1.7-17.7-1.4-.8-3.2 5.7-7.7 14.6-10 8.9-2.4 16.8-1.7 17.7 1.4.9 3.2-5.7 7.7-14.6 10zm28.7-80.3c-2.1 2.5-9.6-.4-16.6-6.4-7-6-11-12.9-8.8-15.4 2.1-2.5 9.6.4 16.6 6.4 7 6 11 12.9 8.8 15.4zm32.9 93.1c-2.3 2.3-9.5-1.1-16-7.6s-9.9-13.7-7.6-16c2.3-2.3 9.5 1.1 16 7.6s9.9 13.7 7.6 16zm24.8-41.5c-1 3.1-8.9 3.5-17.7.7-8.8-2.7-15.2-7.5-14.2-10.6 1-3.1 8.9-3.5 17.7-.7 8.8 2.8 15.1 7.5 14.2 10.6zm-15-52.1c-9.1 1.7-16.9.4-17.5-2.8s6.3-7.2 15.4-8.9c9.1-1.7 16.9-.4 17.5 2.8.6 3.2-6.3 7.2-15.4 8.9zm107.3-165.6c-2.6 3.4-6.3 3.1-11.4 2.6-3.2-.3-7.1-.6-11.9-.1-9.7.9-23.8 8.2-33.7 22.2 14.9 15.2 24.1 36 24.1 58.9 0 6.6-.8 12.9-2.2 19-17.6-27.6-43.2-46.6-73.5-54.1-9.2-2.3-18.6-3.4-28.1-3.4-21.6 0-42.6 6-61.7 16.7 8.1-30.4 32.8-54.1 63.9-60.6-2.5-16.3-11.3-28.6-19.2-33.8-4-2.6-7.6-4.2-10.6-5.5-4.7-2-8.2-3.5-8.9-7.7-.5-3 0-7.5 2.3-10.3 1.3-1.5 2.9-2.4 4.7-2.4 9.5-.3 19.6 4.7 28.7 14.2 11.5 12 20.4 30.8 21.1 43.7 16.7.2 32.2 5.2 45.2 13.7 6.7-11 23.3-23.3 39-28.5 12.5-4.2 23.6-3.9 32 .9 1.6.9 2.7 2.4 3 4.3.7 3.6-.9 7.8-2.8 10.2z"/>
</svg>