<svg xmlns="http://www.w3.org/2000/svg" viewBox="0 0 500 500">
	<title>Melonbug</title>
  <path d="M259.8 362.6c7.2 7.2 11 15.2 8.4 17.8-2.6 2.6-10.5-1.2-17.7-8.5-7.2-7.2-11-15.2-8.4-17.8 2.5-2.6 10.4 1.2 17.7 8.5zm20-39.9c-9.8-3-18.6-2.7-19.6.8-1.1 3.5 6 8.7 15.7 11.8 9.8 3 18.6 2.7 19.6-.8 1.2-3.6-5.9-8.8-15.7-11.8zm-3.1-59c-10.1 1.9-17.7 6.3-17 9.8.7 3.6 9.3 5 19.4 3.1 10.1-1.9 17.7-6.3 17-9.8-.7-3.5-9.4-4.9-19.4-3.1zm-65.2 43c.8-3.5-6.6-8.3-16.6-10.6-10-2.3-18.7-1.3-19.5 2.3-.8 3.5 6.6 8.3 16.6 10.6 9.9 2.3 18.6 1.3 19.5-2.3zm-14.9 46.8c-9.9 2.6-17.1 7.6-16.2 11.1.9 3.5 9.7 4.2 19.6 1.6 9.9-2.6 17.1-7.6 16.2-11.1-1-3.5-9.7-4.2-19.6-1.6zm25.4-93.3c-7.8-6.7-16-9.8-18.3-7.1-2.4 2.8 2 10.4 9.8 17 7.8 6.7 16 9.8 18.3 7.1 2.3-2.7-2.1-10.3-9.8-17zm106.9-12.4c13 27.4 15.8 60.1 8 92-14 57-60 98.4-109.4 98.4-7.3 0-14.5-.9-21.6-2.7-27.4-6.9-49.9-26.3-63.3-54.5-13-27.4-15.8-60.1-8-92 14-57 60-98.4 109.4-98.4 7.3 0 14.5.9 21.6 2.7 27.5 7 49.9 26.3 63.3 54.5zm-9.2 4.4c-12-25.4-32.1-42.8-56.6-49-6.2-1.6-12.7-2.4-19.1-2.4-44.7 0-86.6 38.1-99.5 90.7-7.3 29.7-4.7 59.9 7.3 85.3s32.1 42.8 56.6 49c6.2 1.6 12.7 2.4 19.1 2.4 44.7 0 86.6-38.1 99.5-90.7 7.3-29.7 4.7-60-7.3-85.3zM500 0v500H0V0h500zM354.7 230.8c-17.1-35.7-45.9-60.2-80.9-68.9-71.3-17.7-146.3 36.5-167.3 120.9s19.9 167.5 91.1 185.3c9.1 2.3 18.4 3.4 27.8 3.4 26.3 0 52.5-9 76-26.4 30.9-22.8 53.5-57.6 63.5-98 10-40.3 6.4-81.7-10.2-116.3zM400.9 82c-.4-2.1-1.6-3.8-3.4-4.8-9.3-5.3-21.5-5.6-35.4-1-17.4 5.8-35.7 19.4-43.1 31.6-14.4-9.4-31.6-15-50.1-15.1-.8-14.3-10.6-35-23.3-48.3-10.1-10.6-21.2-16.1-31.7-15.7-2 .1-3.9 1-5.2 2.7-2.6 3.1-3.2 8.1-2.6 11.4.8 4.6 4.6 6.3 9.8 8.5 3.2 1.4 7.3 3.1 11.7 6 8.7 5.7 18.4 19.4 21.2 37.4-34.4 7.2-61.7 33.4-70.7 67.1 21.1-11.9 44.4-18.5 68.3-18.5 10.5 0 20.9 1.3 31.1 3.8 33.6 8.4 61.9 29.4 81.4 59.9 1.6-6.8 2.5-13.8 2.5-21.1 0-25.4-10.2-48.4-26.6-65.3 11-15.5 26.6-23.5 37.4-24.6 5.3-.5 9.6-.1 13.2.1 5.7.5 9.8.8 12.7-2.9 1.8-2.5 3.6-7.2 2.8-11.2z"/>
</svg>