<svg xmlns="http://www.w3.org/2000/svg" viewBox="0 0 500 165">
	<title>Melonbug — Unique gifts for new beginnings</title>
  <path fill="#456a63" d="M154.979 145.114c.622 0 1.151-.187 1.617-.622v2.022c-.684.497-1.524.653-2.302.653-1.897 0-3.048-1.618-3.048-3.391v-7.87h2.24v7.652c0 .871.56 1.556 1.493 1.556Zm15.806-15.397h-2.24v6.189h-5.85v-6.5c0-1.525 1.057-2.769 2.644-2.769.995 0 1.835.249 2.613.871v-2.302a4.744 4.744 0 0 0-2.613-.747c-2.893 0-4.883 2.084-4.883 4.947v6.5h-3.297v2.116h3.297v11.105c0 1.4-1.089 2.862-2.488 3.049l.777 1.927c2.364-.248 3.951-2.736 3.951-4.976v-11.105h5.85v5.443c0 2.147 1.182 3.702 3.422 3.702.778 0 1.524-.156 2.146-.653v-2.022a2.526 2.526 0 0 1-1.742.653c-1.089 0-1.586-.933-1.586-1.929v-5.194h3.422v-2.116h-3.422v-6.189Zm-118.173 13.25v-18.166h-2.395v14.558c0 2.985-2.115 5.629-5.132 5.629-2.613 0-4.044-1.927-4.044-4.416v-9.643c0-3.702-2.333-6.47-6.128-6.47-3.359 0-5.785 2.116-5.785 5.507 0 1.897.933 3.607 2.426 4.727l1.711-1.555c-.995-.747-1.68-1.898-1.68-3.173 0-1.898 1.462-3.236 3.328-3.236 2.333 0 3.702 1.991 3.702 4.2v9.643c0 3.607 2.271 6.594 6.066 6.594 2.426 0 4.386-.809 5.599-2.893.374 1.742 1.835 2.893 3.577 2.893.809 0 1.711-.218 2.551-.84v-2.333c-.466.622-1.275.933-2.053.933-1.089 0-1.742-.933-1.742-1.96Zm101.465-13.126c0-.933-.747-1.742-1.711-1.742s-1.711.809-1.711 1.742.777 1.711 1.711 1.711c.964 0 1.711-.778 1.711-1.711Zm41.443-.435v6.5h-3.297v2.116h3.297v11.105c0 1.4-1.089 2.862-2.488 3.049l.777 1.927c2.364-.248 3.951-2.736 3.951-4.976v-11.105h3.422v-2.116h-3.422v-6.5c0-1.525 1.057-2.769 2.644-2.769.995 0 1.835.249 2.613.871v-2.302a4.744 4.744 0 0 0-2.613-.747c-2.893 0-4.883 2.084-4.883 4.947Zm-14.592 7.714-1.213-1.649c-1.306.622-2.053 1.742-2.053 3.203 0 2.178 2.426 3.203 2.426 4.978 0 .84-.684 1.493-1.524 1.493-.684 0-1.368-.311-1.897-.809v2.24c.715.467 1.617.591 2.457.591 1.866 0 3.204-1.493 3.204-3.329 0-2.487-2.426-3.576-2.426-5.163 0-.715.404-1.244 1.026-1.555Zm-57.624.933-6.563 6.532c.653.404 1.462.622 2.364.622 1.026 0 2.271-.249 3.235-.995v2.238c-.995.529-2.271.716-3.204.716-3.515 0-6.252-2.427-6.252-5.816 0-3.08 2.551-5.725 5.63-5.725 2.053 0 3.546.871 4.79 2.427Zm-2.83.28c-.529-.436-1.338-.747-2.022-.747-2.084 0-3.514 1.742-3.514 3.765 0 .746.186 1.431.56 1.991l4.977-5.008ZM68.7 143.558v-3.576c0-2.489-1.617-4.356-4.043-4.356-1.431 0-2.644.654-3.297 1.805v-1.525h-2.271v10.981h2.271v-6.345c.125-1.587 1.213-2.987 2.862-2.987 1.431 0 2.24 1.089 2.24 2.613v3.609c0 1.773 1.151 3.391 3.111 3.391.715 0 1.586-.156 2.239-.653v-2.022c-.466.435-.995.622-1.524.622-.995 0-1.587-.685-1.587-1.556Zm39.483 0v-7.652h-2.239v6.346c-.125 1.493-1.213 2.954-2.738 2.954-1.586 0-2.364-1.089-2.364-2.582v-6.719h-2.271v6.906c0 2.456 1.617 4.385 4.168 4.385 1.524 0 2.8-.871 3.391-2.271.435 1.4 1.555 2.24 2.862 2.24.778 0 1.649-.156 2.302-.653v-2.022c-.466.435-.995.622-1.617.622-.902 0-1.493-.685-1.493-1.556Zm-13.504 8.523c.623 0 1.151-.186 1.618-.622v2.053c-.653.467-1.493.622-2.302.622-1.898 0-3.049-1.586-3.049-3.358v-5.692c-.933 1.368-2.364 2.084-4.012 2.084-3.204 0-5.506-2.644-5.506-5.785 0-3.111 2.302-5.756 5.506-5.756 1.68 0 3.08.716 4.012 2.054v-1.774h2.271v14.62c0 .871.529 1.555 1.462 1.555Zm-3.732-11.57c-.217-1.556-1.742-2.956-3.577-2.956-2.084 0-3.702 1.773-3.702 3.827s1.617 3.825 3.702 3.825c1.866 0 3.36-1.4 3.577-2.954v-1.742Zm-14.217 3.047v-7.652h-2.24v7.87c0 1.773 1.151 3.391 3.048 3.391.778 0 1.618-.156 2.302-.653v-2.022c-.466.435-.995.622-1.617.622-.933 0-1.493-.685-1.493-1.556Zm66.891-7.652h2.271v13.22c0 2.24-1.617 4.729-3.981 4.976l-.777-1.927c1.4-.218 2.488-1.649 2.488-3.049v-4.074c-.933 1.368-2.395 2.115-4.043 2.115-3.204 0-5.506-2.644-5.506-5.785 0-3.111 2.302-5.756 5.506-5.756 1.648 0 3.111.716 4.043 2.116v-1.836Zm-.031 4.605c-.217-1.556-1.742-2.956-3.577-2.956-2.084 0-3.702 1.773-3.702 3.827s1.617 3.825 3.702 3.825c1.866 0 3.36-1.4 3.577-2.954v-1.742Zm-66.269-10.67c0-.933-.747-1.742-1.711-1.742s-1.711.809-1.711 1.742.777 1.711 1.711 1.711c.964 0 1.711-.778 1.711-1.711Zm169.751 13.717v-3.576c0-2.489-1.617-4.356-4.043-4.356-1.431 0-2.644.654-3.297 1.805v-1.525h-2.271v10.981h2.271v-6.345c.125-1.587 1.213-2.987 2.862-2.987 1.431 0 2.24 1.089 2.24 2.613v3.609c0 1.773 1.151 3.391 3.111 3.391.715 0 1.586-.156 2.239-.653v-2.022c-.466.435-.995.622-1.524.622-.995 0-1.587-.685-1.587-1.556Zm96.204 0v-7.652h-2.24v7.87c0 1.773 1.151 3.391 3.049 3.391.778 0 1.618-.156 2.302-.653v-2.022c-.466.435-.995.622-1.617.622-.934 0-1.494-.685-1.494-1.556Zm30.801 0v-3.576c0-2.489-1.617-4.356-4.043-4.356-1.431 0-2.644.654-3.298 1.805v-1.525h-2.271v10.981h2.271v-6.345c.125-1.587 1.214-2.987 2.862-2.987 1.431 0 2.24 1.089 2.24 2.613v3.609c0 1.773 1.151 3.391 3.111 3.391.716 0 1.587-.156 2.24-.653v-2.022c-.467.435-.995.622-1.524.622-.996 0-1.587-.685-1.587-1.556Zm8.029 0v-7.652h-2.24v7.87c0 1.773 1.151 3.391 3.049 3.391.778 0 1.618-.156 2.302-.653v-2.022c-.466.435-.995.622-1.617.622-.934 0-1.494-.685-1.494-1.556Zm-23.43 0v-3.576c0-2.489-1.617-4.356-4.043-4.356-1.431 0-2.644.654-3.298 1.805v-1.525h-2.271v10.981h2.271v-6.345c.125-1.587 1.214-2.987 2.862-2.987 1.431 0 2.24 1.089 2.24 2.613v3.609c0 1.773 1.151 3.391 3.111 3.391.716 0 1.587-.156 2.24-.653v-2.022c-.467.435-.995.622-1.524.622-.996 0-1.587-.685-1.587-1.556Zm24.021-13.717c0-.933-.746-1.742-1.711-1.742s-1.711.809-1.711 1.742.778 1.711 1.711 1.711c.965 0 1.711-.778 1.711-1.711Zm38.922 8.834c0-.715.405-1.244 1.027-1.555l-1.213-1.649c-1.307.622-2.054 1.742-2.054 3.203 0 2.178 2.427 3.203 2.427 4.978 0 .84-.684 1.493-1.524 1.493-.685 0-1.369-.311-1.898-.809v2.24c.715.467 1.618.591 2.458.591 1.866 0 3.203-1.493 3.203-3.329 0-2.487-2.427-3.576-2.427-5.163Zm-24.114 4.883v-3.576c0-2.489-1.617-4.356-4.043-4.356-1.431 0-2.644.654-3.298 1.805v-1.525h-2.271v10.981h2.271v-6.345c.125-1.587 1.214-2.987 2.862-2.987 1.431 0 2.24 1.089 2.24 2.613v3.609c0 1.773 1.151 3.391 3.111 3.391.716 0 1.587-.156 2.24-.653v-2.022c-.467.435-.995.622-1.524.622-.996 0-1.587-.685-1.587-1.556Zm14.25-7.652h2.271v13.22c0 2.24-1.618 4.729-3.981 4.976l-.778-1.927c1.4-.218 2.489-1.649 2.489-3.049v-4.074c-.933 1.368-2.395 2.115-4.043 2.115-3.203 0-5.505-2.644-5.505-5.785 0-3.111 2.302-5.756 5.505-5.756 1.649 0 3.111.716 4.043 2.116v-1.836Zm-.031 4.605c-.218-1.556-1.742-2.956-3.578-2.956-2.084 0-3.702 1.773-3.702 3.827s1.618 3.825 3.702 3.825c1.867 0 3.36-1.4 3.578-2.954v-1.742Zm-78.313-4.605h2.271v13.22c0 2.24-1.618 4.729-3.981 4.976l-.778-1.927c1.4-.218 2.489-1.649 2.489-3.049v-4.074c-.933 1.368-2.395 2.115-4.043 2.115-3.203 0-5.505-2.644-5.505-5.785 0-3.111 2.302-5.756 5.505-5.756 1.649 0 3.111.716 4.043 2.116v-1.836Zm-.031 4.605c-.218-1.556-1.742-2.956-3.578-2.956-2.084 0-3.702 1.773-3.702 3.827s1.618 3.825 3.702 3.825c1.867 0 3.36-1.4 3.578-2.954v-1.742Zm-52.583-4.885c-1.089 0-1.96.903-1.96 1.991 0 1.183.934 2.023 2.022 1.96v2.769c0 1.68-.933 2.862-2.705 2.862-1.742 0-2.707-1.182-2.707-2.862v-6.439h-2.24v6.47c0 1.649-.84 2.831-2.582 2.831-1.711 0-2.551-1.182-2.551-2.831v-6.47h-2.271v6.626c0 2.893 1.96 4.665 4.821 4.665 1.649 0 3.111-.809 3.702-2.395.56 1.555 2.085 2.395 3.702 2.395 2.862 0 4.821-1.773 4.821-4.665v-4.852c0-1.12-.871-2.054-2.053-2.054Zm-18.603 2.427-6.563 6.532c.653.404 1.462.622 2.364.622 1.027 0 2.271-.249 3.234-.995v2.238c-.995.529-2.271.716-3.203.716-3.514 0-6.252-2.427-6.252-5.816 0-3.08 2.551-5.725 5.63-5.725 2.053 0 3.545.871 4.79 2.427Zm-2.831.28c-.529-.436-1.338-.747-2.022-.747-2.085 0-3.516 1.742-3.516 3.765 0 .746.187 1.431.56 1.991l4.978-5.008Zm84.504-8.492c0-.933-.746-1.742-1.711-1.742s-1.711.809-1.711 1.742.778 1.711 1.711 1.711c.965 0 1.711-.778 1.711-1.711Zm-119.599 5.785c-1.369 0-2.551.934-3.173 2.116v-1.836h-2.271v10.981h2.271v-5.91c.093-1.244.684-2.271 1.68-2.769.28.654.902 1.089 1.586 1.089 1.026 0 1.835-.84 1.835-1.835 0-1.027-.871-1.836-1.929-1.836Zm78.779-.031c-1.12 0-2.209.871-2.209 2.054 0 1.026.934 1.927 1.929 1.927.778 0 1.493-.529 1.618-1.151.902.498 1.275 1.805 1.275 2.707 0 2.209-1.555 3.887-3.638 3.887-1.96 0-3.609-1.648-3.609-3.607v-16.611h-2.271v16.611c0 3.173 2.613 5.785 5.754 5.785 3.203 0 5.848-2.705 5.848-6.034 0-2.676-1.587-5.568-4.698-5.568Zm-88.488 5.817c0 3.142-2.582 5.785-5.754 5.785s-5.755-2.644-5.755-5.785c0-3.173 2.582-5.786 5.755-5.786s5.754 2.614 5.754 5.786Zm-1.991 0c0-.374-.031-.747-.125-1.12-.311.28-.746.435-1.182.435-.995 0-1.835-.809-1.835-1.804 0-.436.155-.84.466-1.151a4.638 4.638 0 0 0-1.12-.156c-2.084 0-3.67 1.743-3.67 3.796s1.617 3.794 3.702 3.794 3.763-1.742 3.763-3.794Zm108.772-3.36-6.563 6.532c.653.404 1.462.622 2.364.622 1.027 0 2.271-.249 3.236-.995v2.238c-.996.529-2.271.716-3.203.716-3.516 0-6.252-2.427-6.252-5.816 0-3.08 2.551-5.725 5.629-5.725 2.054 0 3.547.871 4.79 2.427Zm-2.831.28c-.529-.436-1.337-.747-2.022-.747-2.084 0-3.514 1.742-3.514 3.765 0 .746.186 1.431.56 1.991l4.976-5.008ZM205.299 6.371c.878.376 1.969.844 3.171 1.637 2.457 1.621 5.217 5.579 5.844 10.767l.046.376 5.295-.123.028-.378c.285-3.849-2.549-10.197-6.319-14.149-2.732-2.866-5.738-4.353-8.604-4.263-.553.015-1.045.264-1.422.723-.701.854-.856 2.205-.703 3.099.216 1.261 1.242 1.701 2.664 2.31Zm49.362 11.421c.553-.717 1.05-1.983.83-3.067-.117-.581-.433-1.033-.915-1.306-2.524-1.425-5.842-1.518-9.6-.267-5.182 1.726-10.661 6.003-12.213 9.536l-.152.347 4.619 2.591.217-.312c2.986-4.288 7.279-6.491 10.209-6.772 1.432-.137 2.617-.04 3.568.04 1.542.129 2.655.221 3.437-.792Z"/>
  <path fill="#689753" d="M242.956 55.076c4.503 9.403 5.484 20.608 2.761 31.547-2.723 10.942-8.842 20.379-17.227 26.575-6.378 4.712-13.498 7.149-20.618 7.149-2.524 0-5.048-.306-7.538-.925-19.326-4.81-30.413-27.35-24.715-50.245 5.698-22.894 26.057-37.608 45.383-32.797 9.517 2.369 17.314 9.008 21.954 18.696ZM79.633 57.228c-4.008-5.737-9.789-8.607-17.344-8.607h-.685c-4.853.171-10.819 2.315-17.898 6.434-3.605-4.346-8.614-6.519-15.024-6.519-.666 0-1.333.029-1.998.085-2.165.282-4.553.818-7.161 1.608-1 .396-3.275 1.44-6.828 3.132l-.518-10.45-12.179.341 1.875 66.294H14.57l-1.363-42.339c4.864-3.471 8.843-5.378 11.94-5.72.663-.056 1.27-.085 1.824-.085 2.166 0 3.935.484 5.304 1.451 2.849 2.334 4.532 6.289 5.046 11.865l.683 17.16c0 6.317-.057 11.582-.17 15.793l12.697-.256c0-10.698-.461-20.602-1.382-29.708L47.94 66.865c4.899-3.357 8.857-5.206 11.877-5.549a8.009 8.009 0 0 1 1.11-.085c2.897 0 5.226.996 6.987 2.988 1.988 2.219 3.239 5.717 3.749 10.498.454 7.567.682 13.997.682 19.287v21.677h12.61c.057-4.148.086-8.094.086-11.844 0-15.565-.573-27.437-1.718-35.619-.687-4.544-1.917-8.208-3.69-10.992Zm69.297 19.514c0 1.492-.121 2.626-.361 3.396l-46.268 3.192c1.988 8.843 7.754 13.52 17.298 14.032a17.15 17.15 0 0 0 2.77.129c.993-.028 2.058-.071 3.195-.129 1.419-.113 3.976-.481 7.669-1.108l1.704 11.563c-3.92 1.094-7.357 1.726-10.311 1.899a54.172 54.172 0 0 1-3.068.087c-7.272 0-13.634-1.656-19.087-4.971-7.843-4.856-12.184-11.883-13.024-21.082a33.1 33.1 0 0 1-.251-4.027c0-6.327 1.704-12.346 5.113-18.054 4.431-7.233 10.424-11.697 17.979-13.393 3.124-.565 5.908-.848 8.351-.848 5.339 0 9.714.819 13.123 2.457 10.11 5.31 15.167 14.261 15.167 26.857Zm-13.464-6.135c0-5.3-2.614-8.957-7.839-10.975-2.614-.921-5.453-1.382-8.521-1.382-2.784 0-5.538.806-8.265 2.414-2.727 1.61-4.744 3.622-6.05 6.035-1.251 2.414-2.075 4.539-2.472 6.378l33.147-2.47Zm32.893-58.456c.056-2.499.085-4.772.085-6.817l-12.768-.512a343.88 343.88 0 0 0-.781 22.837c0 1.989.027 3.977.085 5.965l.341 16.957.682 16.872c.567 15.623 1.221 28.943 1.96 39.964l13.464.426c-.819-11.929-1.483-24.796-1.995-38.6-.716-24.825-1.073-43.855-1.073-57.092ZM301.948 83.02c-1.016-13.395-2.459-21.824-4.33-25.287-3.971-6.074-9.953-9.111-17.948-9.111h-.681c-2.496.171-4.596.481-6.297.933-2.213.791-5.474 2.233-9.785 4.325l-.601-9.774-11.996.341 3.32 64.931h12.696l-2.561-41.561c6.234-4.558 11.309-6.839 15.22-6.839 4.276 0 7.185 2.17 8.725 6.511.912 5.825 1.368 10.166 1.368 13.02v1.286c.225 7.767.338 16.847.338 27.241l13.041.342c.055-2.685.084-5.254.084-7.711 0-7.323-.198-13.537-.593-18.647Z"/>
  <path fill="#cbffb3" d="M235.966 59.707c-3.627-7.657-9.722-12.905-17.164-14.778a23.999 23.999 0 0 0-5.856-.726c-13.385 0-25.862 11.225-29.669 26.692-2.131 8.659-1.365 17.524 2.159 24.962 3.627 7.657 9.723 12.905 17.164 14.778 1.913.482 3.884.726 5.856.726 13.384 0 25.862-11.225 29.669-26.692 2.131-8.658 1.365-17.523-2.158-24.962Z"/>
  <path fill="#f46964" d="M233.474 60.887c3.253 6.867 3.953 15.079 1.973 23.123-3.508 14.251-14.859 24.594-26.992 24.594-1.746 0-3.49-.216-5.184-.642-6.628-1.668-12.077-6.386-15.345-13.285-3.252-6.867-3.953-15.079-1.973-23.123 3.508-14.251 14.86-24.594 26.992-24.594 1.746 0 3.49.216 5.184.642 6.628 1.668 12.077 6.386 15.345 13.285Zm136.034 9.642c.338 2.112.51 4.165.51 6.161 0 5.83-1.33 11.264-3.989 16.301-3.395 6.511-9.139 11.094-17.231 13.755-5.035 1.641-9.675 2.462-13.918 2.462-3.798 0-7.849-.597-12.155-1.79l.17 8.607-12.697-.341-1.62-111.541 12.946-1.193.518 49.168c4.931-3.351 11.023-5.027 18.276-5.027h1.019c7.07.285 13.208 2.581 18.412 6.887s8.456 9.825 9.758 16.554ZM357.32 77.29c.056-4.462-1.672-8.523-5.184-12.184-3.684-3.832-7.396-5.719-11.136-5.662h-.51a29.215 29.215 0 0 0-2.211-.086c-4.874 0-9.294 1.488-13.261 4.461-.793.573-1.729 1.402-2.805 2.489l.341 27.627c2.946 1.773 7.366 2.746 13.261 2.917h.68c8.216 0 14.252-3.145 18.106-9.437 1.588-2.746 2.465-5.663 2.635-8.752.056-.457.084-.915.084-1.372Zm53.748-28.328.767 43.094c-5.738 4.447-10.539 6.669-14.401 6.669-4.659 0-7.754-2.564-9.288-7.696-.625-2.678-1.022-7.125-1.192-13.337-.228-7.752-.342-16.787-.342-27.106l-13.122-.342v4.105c0 7.496.255 14.909.767 22.234 1.192 13.742 2.575 22.174 4.146 25.297 1.797 3.181 4.436 5.51 7.917 6.987 3.48 1.475 7.046 2.214 10.697 2.214 4.771-.17 9.882-1.845 15.329-5.027l.347 10.822 12.349-.341-1.278-67.573h-12.698Zm88.933 88.825c0 9.674-4.392 16.96-13.175 21.856-6.026 3.414-12.671 5.123-19.935 5.123-.971 0-1.939-.03-2.909-.086-3.024-.17-5.021-.398-5.99-.683-8.729-2.505-14.691-7.172-17.884-14-1.656-3.757-2.482-7.143-2.482-10.159 0-4.16.799-7.835 2.398-11.026-1.212-1.187-2.219-2.344-3.027-3.473-2.48-3.277-3.717-6.666-3.717-10.167 0-.865.058-1.702.173-2.509.518-4.553 2.305-8.444 5.36-11.673a28.63 28.63 0 0 1-3.595-3.821c-3.18-4.018-5.019-8.828-5.522-14.43a32.457 32.457 0 0 1-.249-3.989c0-6.338 1.706-12.365 5.121-18.083 4.437-7.243 10.441-11.714 18.011-13.411 3.129-.566 5.946-.849 8.451-.849 5.549 0 10.052.797 13.508 2.386.283 0 .538.114.764.341l9.701-11.333 9.8 8.436-9.965 10.822c2.374 2.929 4.031 6.786 4.97 11.574.717 3.606 1.077 6.928 1.077 9.969 0 1.028-.028 2.028-.083 3-.506 5.259-1.655 9.775-3.448 13.547-3.646 7.088-9.225 11.321-16.74 12.691-2.298.459-5.608.687-9.925.687-4.034 0-8.125-.711-12.274-2.131l-.355.341c-1.958 1.307-2.934 3.574-2.934 6.802 0 3.284 1.153 5.663 3.461 7.137 3.631-2.03 9.163-3.468 16.595-4.313 1.816-.283 3.999-.422 6.552-.422 1.069 0 2.194.028 3.375.084 7.987.511 14.485 3.288 19.493 8.332 3.601 3.626 5.4 8.104 5.4 13.433ZM455.688 95.24c2.572.565 4.801.845 6.688.845.457.056.913.084 1.372.084 1.926 0 3.737-.31 5.438-.929 3.114-1.521 5.635-4.055 7.559-7.603 1.529-2.927 2.294-6.307 2.294-10.135 0-.789-.03-1.605-.084-2.45-.342-2.703-.935-5.265-1.785-7.688-2.151-4.504-5.041-7.432-8.664-8.785-2.606-.9-5.466-1.352-8.581-1.352h-.17c-5.384 0-9.795 2.338-13.23 7.011-2.921 3.829-4.381 7.856-4.381 12.079 0 .959.084 1.916.256 2.874.858 8.615 5.288 13.966 13.289 16.048Zm30.85 44.939c0-7.807-4.558-12.223-13.673-13.249-.676-.114-1.66-.17-2.954-.17a11.799 11.799 0 0 0-3.46 0c-6.866.17-11.648 2.394-14.349 6.667-.676 1.138-1.012 2.564-1.012 4.272v1.112c.452 4.388 1.598 7.807 3.44 10.259 1.841 2.447 4.801 4.044 8.879 4.786 1.302.284 3.057.428 5.267.428.951 0 1.983-.03 3.102-.086 7.325-.684 12.021-3.875 14.09-9.573.447-1.368.67-2.85.67-4.445Z"/>
  <path d="M209.614 67.687c-.642.748-2.869-.11-4.974-1.915-2.105-1.806-3.292-3.876-2.651-4.624s2.869.11 4.974 1.915c2.105 1.806 3.292 3.876 2.651 4.624Zm-5.505 7.992c.221-.96-1.791-2.243-4.495-2.865-2.703-.622-5.074-.347-5.295.613-.221.96 1.791 2.243 4.495 2.865s5.074.347 5.295-.613Zm-4.035 12.677c-2.68.714-4.647 2.065-4.393 3.018.254.952 2.632 1.145 5.313.431 2.68-.714 4.647-2.065 4.394-3.018-.254-.952-2.632-1.145-5.313-.431Zm22.373-20.83c2.728-.504 4.794-1.698 4.615-2.667-.179-.969-2.535-1.346-5.263-.842-2.728.504-4.794 1.698-4.615 2.667.179.969 2.535 1.346 5.263.842Zm.211 12.468c-2.65-.82-5.034-.722-5.325.22-.291.941 1.621 2.369 4.27 3.19 2.65.82 5.034.722 5.325-.22.291-.941-1.621-2.369-4.27-3.19Zm-10.255 8.529c-.698.696.324 2.852 2.283 4.816s4.112 2.992 4.81 2.296c.698-.696-.324-2.852-2.283-4.816s-4.112-2.992-4.81-2.296Z"/>
  <path fill="#588046" d="M213.566 31.333c2.841 0 5.679.348 8.435 1.034 9.11 2.267 16.792 7.971 22.08 16.255.425-1.838.672-3.745.672-5.713 0-13.973-11.327-25.3-25.3-25.3-11.703 0-21.522 7.958-24.413 18.749 5.728-3.221 12.048-5.025 18.526-5.025Z"/>
</svg>