<svg xmlns="http://www.w3.org/2000/svg" viewBox="0 0 1000 225">
	<title>Melonbug</title>
	<path fill="#3a3a36" d="M203 162.6q.8 1 .8 2.5 0 1.8-1.2 2.8-1.2 1.2-4 1.1h-39q-5.3 0-5.3-4.2 0-2.4 3-3.8l3.8-1q2-.6 3-2.2c1-1.6.9-2.5.6-4.6l-5.2-46.9q-1-8.5-4.5-13T144.8 89q-4 0-8.4 2.2a47 47 0 0 0-9.4 6.5l-1 1 .1 3.8v51q0 3 .9 4.5t2.8 2.1l3.4 1.1q3 1.2 3 3.7 0 4.2-5.3 4.2H93.2q-5.4 0-5.4-4.2 0-2.4 2.9-3.8l3.9-1q2-.7 2.8-2.2c.8-1.5.9-2.5.9-4.6v-46.9q0-8.7-4.1-13a15 15 0 0 0-11.3-4.4q-4.5 0-9.4 2a38 38 0 0 0-10.1 6.6l-1.1 1v55.1q0 3 .9 4.3a5 5 0 0 0 2.6 2l3.7 1.1q3 1.4 3.1 3.8 0 4.2-5.3 4.2H28.6q-2.7 0-4-1a4 4 0 0 1-1.2-2.9q0-1.6.9-2.5 1-1 2.6-1.6l4-1a5 5 0 0 0 2.7-2q.9-1.4.9-4.4V95.4q0-2.3-.7-3.5-.8-1-2.5-1.4l-5.4-.4q-1.7-.3-2.4-1.2-.8-.8-.8-2.3c0-1.5.3-1.8 1-2.4s1.7-1.3 3.4-1.9l19.2-6.9 5.8-1.9q2.2-.6 4.1-.6 3 0 4.6 1.7 1.5 1.8 1.5 4.3v11.2a89 89 0 0 1 18.3-13q9.2-4.7 17.4-4.7 12.8 0 20.5 8 4.3 4.5 6.1 11 10.7-9.7 18.8-14.2a35 35 0 0 1 16.7-4.8q12 0 18.9 8.1a40 40 0 0 1 8.3 22l5.6 50.7q.4 3.3 1.2 4.7.8 1.6 2.7 2.2l3.5 1q1.7.7 2.6 1.5m89.8-41.8h-55q1.5 14.2 8.8 22 9 9.7 23.9 9.7 9 0 15.6-3.6 6.7-3.6 10.2-10.4 1.6-1.8 2.7-2.5 1-.6 2.1-.7 1.5 0 2.2 1.4t.6 3.3a27 27 0 0 1-6 15.7 38 38 0 0 1-14.9 11.5 52 52 0 0 1-21.7 4.2q-14.4 0-25.5-5.8a43 43 0 0 1-17.4-16.6 48 48 0 0 1-6.3-25q0-15 6-26.8 6-11.6 17.3-18.2a52 52 0 0 1 26.7-6.6 49 49 0 0 1 22.7 4.9q9.4 4.8 14.4 13.4 5 8.5 5 19.6 0 5.1-2.9 7.8-3 2.7-8.5 2.7M276 109.1q0-13.5-4.7-20.3a15 15 0 0 0-12.8-6.9q-6.2 0-11 3.7t-7.4 10.9a50 50 0 0 0-2.6 17h33.6q5 0 4.9-4.4m88.8 52-3.8-1q-1.7-.7-2.6-2.1t-.9-4.4V26.4q0-2.6-1.5-4.4-1.6-1.6-4.8-1.7-1.5 0-3.7.6c-2.2.6-3.6 1-6.1 2l-19.1 6.8a10 10 0 0 0-3.5 2q-.9 1-.9 2.5 0 1.4.8 2.2t2.4 1.3l5.4.3q1.7.3 2.5 1.4.7 1 .7 3.5v110.7q0 3-.9 4.4a5 5 0 0 1-2.7 2l-4 1q-1.7.6-2.6 1.6t-.9 2.5q0 1.8 1.3 2.8 1.2 1.2 3.9 1.1h39.4q2.8 0 4-1 1.5-1.2 1.4-2.9 0-1.5-.9-2.6a6 6 0 0 0-2.9-1.5m248.6 0-3.6-1q-1.7-.5-2.6-2.1-1-1.5-1.1-4.7l-5.8-51q-1.4-13.6-8.1-21.8c-6.7-8.2-10.9-8-19-8q-8 0-16.9 4.7-7.5 4.2-17.8 13V79q0-2.7-1.6-4.4-1.5-1.7-4.5-1.7-1.9 0-4.1.6t-5.8 2l-19.2 6.8a10 10 0 0 0-3.5 1.9q-.9.9-.9 2.4c0 1.5.3 1.8.8 2.3q.8.9 2.4 1.2l5.4.4q1.7.3 2.4 1.4.8 1 .8 3.4v58.3q0 3-.9 4.4a5 5 0 0 1-2.7 2l-4 1a6 6 0 0 0-2.6 1.6q-.9 1-.9 2.5 0 1.8 1.2 2.8 1.3 1.2 4 1.1h38.7q5.3 0 5.3-4.2 0-2.4-3.1-3.8l-3.7-1q-1.7-.6-2.6-2a8 8 0 0 1-.9-4.4V98.5l1.1-1q5.1-4.2 9.6-6.4t8.9-2.2q6.6 0 10 4.3 3.4 4.4 4.5 13l5.2 47.1q.4 3.1-.6 4.6-1.1 1.5-3 2.1l-3.9 1q-3 1.4-3 3.8 0 4.2 5.2 4.2h39.2q2.8 0 4-1 1.3-1.1 1.3-2.9 0-1.6-.9-2.5a7 7 0 0 0-2.7-1.6M727.1 95q5.3 10.6 5.3 24.4a57 57 0 0 1-6.3 27.6 46 46 0 0 1-62.3 19q-3.3-2.1-6.3-4.8l-8.8 7-6.8 2.5q-2 .6-4 .6-2.3 0-3.6-1.3-1.3-1.2-1.3-3.8V43q0-2.4-.8-3.5-.7-1-2.4-1.4l-5.4-.3q-1.7-.4-2.5-1.3-.7-.9-.7-2.2 0-1.5.9-2.5a10 10 0 0 1 3.5-2l19.1-6.9 6-1.9q2.2-.6 3.8-.6 3.2 0 4.7 1.7 1.5 1.8 1.6 4.4V86q4-4 8.2-6.8A39.8 39.8 0 0 1 727.1 95m-23.7 27.3q0-12.3-3-20.3T692 90a19 19 0 0 0-11.8-4q-7 0-13.4 4.3a34 34 0 0 0-6.1 5.6v55.8q2.7 3 5.6 4.9 6 4 13.2 4a20 20 0 0 0 12.2-4q5.4-4 8.5-12.5t3.1-21.8m150 38.7-3.8-1q-2-.5-2.8-2t-.8-4.4V79q0-2.5-1.6-4.3Q843 73 840 73q-1.9 0-4.1.6t-5.8 2l-19.3 6.8q-2.4 1-3.4 2c-1 1-1 1.5-1 2.5q0 1.4.7 2.2.8.9 2.6 1.2l5.4.5q1.7.3 2.4 1.3t.7 3.4v51q-5 4.4-10 6.5a23 23 0 0 1-9.3 2.1q-7 0-11.3-4.4-4.2-4.4-4.2-13.2V79q0-2.5-1.6-4.3-1.5-1.6-4.7-1.7-1.6 0-3.9.6t-6 2l-19 6.8a9 9 0 0 0-3.5 2q-1 1-1 2.5 0 1.4.8 2.2t2.5 1.2l5.4.5q1.5.3 2.3 1.3t.8 3.4v46.1q0 13.8 7.7 21.8a27 27 0 0 0 20.5 8.1q8.2 0 17.4-4.6a91 91 0 0 0 17.9-12.5v1q0 6 3.5 10 3.4 3.7 8.7 3.7h20.6q2.7 0 4-1 1.3-1.2 1.3-2.9 0-1.5-.9-2.6a5 5 0 0 0-2.7-1.5m123.9-92q0 5.3-2.8 8.7a9 9 0 0 1-7.3 3.3q-3 0-5-1.5-1.8-1.5-3.1-3.4a16 16 0 0 0-3-3.4 7 7 0 0 0-4.5-1.4q-3.1 0-5.6 2.5-1.3 1.4-3 4.1a37 37 0 0 1 14.8 12.3 35 35 0 0 1-.5 38.3q-6 9-16.8 13.7a72.4 72.4 0 0 1-35.6 4.1l-1.5 1.2q-1.3 1.5-1.3 3t1.6 3 7.8 3 20.1 3.6q14.8 2 23.5 5.5 8.8 3.4 12.6 8.7a21 21 0 0 1 3.8 12.6q0 13.7-14.6 22.4t-42.1 8.7q-18 0-28.7-2.9-10.6-2.8-15.3-8a17 17 0 0 1-4.6-11.5q0-7.8 7.6-13.8 5.7-4.5 18-7a21 21 0 0 1-9-5.4q-2.8-3.4-2.8-8.2 0-4.2 2.3-8 2.3-3.6 8-6.3 2.9-1.2 6.8-2.2-3.2-1-6.2-2.3a37 37 0 0 1-15.8-12.9 34.5 34.5 0 0 1 .5-38.3q6-8.7 16.8-13.6a61 61 0 0 1 25.5-4.9q10.8 0 19.3 2.8 4.8-9.9 11.3-14.8 6.8-5 14.3-5 6.4 0 10.5 3.5 4 3.6 4 9.7m-78.1 108q-5 1.5-7.9 4.2a11 11 0 0 0-3.8 8.4q0 8.7 7.1 14.1t24.6 5.4q10 0 16.1-1.6 6-1.6 8.9-4.8 2.8-3.2 2.8-7.7 0-3.4-2.7-6.1c-2.7-2.7-4.9-3.3-9.4-4.7a149 149 0 0 0-18.8-4q-10.1-1.5-17-3.1m34.8-67.7q-1.6-14-7.2-21.5t-13.9-7a14 14 0 0 0-9 3.9q-3.6 3.5-4.9 9.8-1.2 6.5-.2 15.5 1 9.3 3.9 15.9 2.8 6.5 7.2 9.8t10.1 2.8q8.1-.6 11.7-8 3.7-7.5 2.3-21.2"/>
	<path fill="#819e89" d="M476.4 92.8a53 53 0 0 1 6.6 27q0 15-6.6 26.8a48 48 0 0 1-18.3 18.4 54 54 0 0 1-27 6.6A54 54 0 0 1 404 165a49 49 0 0 1-18.5-18.4 53 53 0 0 1-6.6-26.7q0-15.3 6.5-27t18.4-18.4a54 54 0 0 1 26.9-6.6q15.4 0 27.3 6.7 11.7 6.6 18.5 18.3m28-60.7q-.4-1.5-1.6-2.3-6.7-3.7-16.6-.5a41 41 0 0 0-20.5 15.2c-7-4.2-15.1-6.6-23.3-7a41 41 0 0 0-11-23.2c-4.7-5-10-7.5-14.9-7.3q-1.5 0-2.4 1.2a7 7 0 0 0-1.3 5.4c.4 2.2 2.2 3 4.7 4q2.3.8 5.4 2.8c4.2 2.7 8.8 9.2 10 17.8A41 41 0 0 0 400 68.5l.2-.2c28-16 70-6.2 83.8 24 4.9-18-.6-32.5-10.7-42 5.1-7.4 12.5-11.2 17.5-11.6q3.7-.3 6.2 0c2.7.3 4.6.4 6-1.3 1-1.3 1.8-3.5 1.4-5.3"/>
	<path fill="#ee978c" d="M441.1 160.7q8.2-4.2 13.8-13.4a64 64 0 0 0 7.9-23.1q2.1-13.8 0-24c-2.1-10.3-4.3-12.5-8.4-16.6q-6-6.1-15.7-7.5-9.9-1.4-18.1 2.7-8.2 4.2-13.8 13.4a64 64 0 0 0-7.8 23.1 66 66 0 0 0 0 24 32 32 0 0 0 8.3 16.6 27 27 0 0 0 15.8 7.6q9.9 1.4 18-2.8"/>
	<path fill="#f9f7ef" d="M464.7 99.7a35 35 0 0 0-8.9-17.5A29 29 0 0 0 439 74q-10.5-1.5-19.2 3t-14.6 14a67 67 0 0 0-8 24 68 68 0 0 0 0 24.7 34 34 0 0 0 8.8 17.5 29 29 0 0 0 17 8.1q2.6.4 5 .4 7.6 0 14.2-3.3 8.6-4.5 14.5-14.1a66 66 0 0 0 8.1-24 67 67 0 0 0 0-24.7m-4 24.1a62 62 0 0 1-7.5 22.5 33 33 0 0 1-13 12.6q-7.5 3.9-16.8 2.6-9-1.3-14.7-7t-7.8-15.6a64 64 0 0 1 .1-23.2q2.2-13.6 7.6-22.5 5.3-8.7 12.9-12.6a27 27 0 0 1 16.9-2.6 25 25 0 0 1 14.6 7q5.7 5.7 7.8 15.5a64 64 0 0 1 0 23.3M429 103.5c1 1.8.7 2.8.3 3.2q-.3.5-1.3.6-.7 0-1.9-.4-2-.8-4.3-2.7a16 16 0 0 1-3.3-3.9c-1-1.8-.7-2.7-.3-3.2 1.2-1.4 4.7.2 7.5 2.6q2.2 1.9 3.3 3.8m-15 15.2c-3.5-.9-6.9-2.7-6.4-4.6s4.2-2 7.8-1.2q2.8.7 4.7 1.9c1.8 1 2 2 1.8 2.7-.1.6-.7 1.3-2.8 1.6H418q-1.8 0-3.8-.4m9.7 16.4c.1.6 0 1.6-1.7 2.8q-1.9 1.2-4.7 2-2.3.6-4.3.6c-1.8 0-3.3-.5-3.6-1.6-.1-.6 0-1.5 1.7-2.7q1.9-1.2 4.7-2c3.5-1 7.4-1 7.9 1m16 2.6c2.6 2.6 4.5 6 3.1 7.3q-.3.4-1.2.4-.7 0-2-.5-2-1-4-3a16 16 0 0 1-3-4.1c-1-1.9-.6-2.8-.2-3.3 1.4-1.3 4.7.6 7.3 3.2m13.6-35.2c.4 1.8-3.1 3.5-6.7 4.2l-3.3.3c-2.3 0-4.2-.6-4.5-1.9-.3-1.9 3.1-3.5 6.7-4.2q3-.5 5.1-.2c2 .3 2.6 1.1 2.7 1.7m-.2 25.2q-.6 1.5-3.2 1.5-2.1 0-4.7-.8c-3.5-1.1-6.7-3.2-6.2-5 .2-.6.9-1.3 3-1.4q2.1 0 5 .8c3.4 1 6.7 3.1 6.1 5"/>
</svg>