<svg xmlns="http://www.w3.org/2000/svg" viewBox="0 0 500 165">
	<title>Melonbug — Unique gifts for new beginnings</title>
  <path fill="white" d="M179.9 138.7c0 1.6 2.4 2.7 2.4 5.2 0 1.8-1.3 3.3-3.2 3.3-.8 0-1.7-.1-2.5-.6v-2.2c.5.5 1.2.8 1.9.8.8 0 1.5-.7 1.5-1.5 0-1.8-2.4-2.8-2.4-5 0-1.5.7-2.6 2.1-3.2l1.2 1.6c-.6.3-1 .9-1 1.6zm-26.4 4.9v-7.7h-2.2v7.9c0 1.8 1.2 3.4 3 3.4.8 0 1.6-.2 2.3-.7v-2c-.5.4-1 .6-1.6.6-1 0-1.5-.7-1.5-1.5zm17.3-7.7v-6.2h-2.2v6.2h-5.8v-6.5c0-1.5 1.1-2.8 2.6-2.8 1 0 1.8.2 2.6.9v-2.3c-.8-.5-1.6-.7-2.6-.7-2.9 0-4.9 2.1-4.9 4.9v6.5h-3.3v2.1h3.3v11.1c0 1.4-1.1 2.9-2.5 3l.8 1.9c2.4-.2 4-2.7 4-5v-11h5.9v5.4c0 2.1 1.2 3.7 3.4 3.7.8 0 1.5-.2 2.1-.7v-2c-.5.4-1.1.7-1.7.7-1.1 0-1.6-.9-1.6-1.9V138h3.4v-2.1h-3.5zm-21.9-59.2c0 1.5-.1 2.6-.4 3.4l-46.3 3.2c2 8.8 7.8 13.5 17.3 14 .9.1 1.8.2 2.8.1 1 0 2.1-.1 3.2-.1 1.4-.1 4-.5 7.7-1.1l1.7 11.6c-3.9 1.1-7.4 1.7-10.3 1.9-1 .1-2 .1-3.1.1-7.3 0-13.6-1.7-19.1-5-7.8-4.9-12.2-11.9-13-21.1-.2-1.3-.2-2.7-.3-4 0-6.3 1.7-12.3 5.1-18.1 4.4-7.2 10.4-11.7 18-13.4 3.1-.6 5.9-.8 8.4-.8 5.3 0 9.7.8 13.1 2.5 10.2 5.3 15.2 14.2 15.2 26.8zm-13.4-6.1c0-5.3-2.6-9-7.8-11-2.6-.9-5.5-1.4-8.5-1.4-2.8 0-5.5.8-8.3 2.4-2.7 1.6-4.7 3.6-6 6-1.2 2.4-2.1 4.5-2.5 6.4l33.1-2.4zm18.6 59.2c0-.9-.7-1.7-1.7-1.7s-1.7.8-1.7 1.7.8 1.7 1.7 1.7c.9.1 1.7-.7 1.7-1.7zM222 32.4c9.1 2.3 16.8 8 22.1 16.3.4-1.9.7-3.8.7-5.7 0-6.9-2.8-13.1-7.2-17.7 3-4.2 7.2-6.4 10.1-6.7 1.4-.1 2.6 0 3.6 0 1.5.1 2.7.2 3.4-.8.6-.7 1-2 .8-3.1-.1-.6-.4-1-.9-1.3-2.5-1.4-5.8-1.5-9.6-.3-4.7 1.6-9.7 5.3-11.7 8.6-4-2.6-8.8-4.1-13.6-4.1-.2-3.9-2.9-9.5-6.3-13.1-2.7-2.9-5.7-4.4-8.6-4.3-.6 0-1 .3-1.4.7-.7.9-.9 2.2-.7 3.1.2 1.3 1.2 1.7 2.7 2.3.9.4 2 .8 3.2 1.6 2.4 1.6 5 5.3 5.7 10.2-9.3 2-16.7 9.1-19.2 18.2 5.7-3.2 12-5 18.5-5 2.8 0 5.6.4 8.4 1.1zM94.7 152.1c.6 0 1.2-.2 1.6-.6v2.1c-.7.5-1.5.6-2.3.6-1.9 0-3-1.6-3-3.4v-5.7c-.9 1.4-2.4 2.1-4 2.1-3.2 0-5.5-2.6-5.5-5.8 0-3.1 2.3-5.8 5.5-5.8 1.7 0 3.1.7 4 2.1v-1.8h2.3v14.6c-.1.9.4 1.6 1.4 1.6zm-3.8-11.6c-.2-1.6-1.7-3-3.6-3-2.1 0-3.7 1.8-3.7 3.8 0 2.1 1.6 3.8 3.7 3.8 1.9 0 3.4-1.4 3.6-3v-1.6zm104.6-11.1v6.5h-3.3v2.1h3.3v11.1c0 1.4-1.1 2.9-2.5 3l.8 1.9c2.4-.2 4-2.7 4-5v-11h3.4v-2.1h-3.4v-6.5c0-1.5 1.1-2.8 2.6-2.8 1 0 1.8.2 2.6.9v-2.3c-.8-.5-1.7-.8-2.6-.7-2.9 0-4.9 2-4.9 4.9zm19.1 12c0 3.1-2.6 5.8-5.8 5.8s-5.8-2.6-5.8-5.8c0-3.2 2.6-5.8 5.8-5.8 3.2 0 5.8 2.6 5.8 5.8zm-2 0c0-.4 0-.7-.1-1.1-.3.3-.7.4-1.2.4-1 0-1.8-.8-1.8-1.8 0-.4.2-.8.5-1.2-.4-.1-.7-.1-1.1-.2-2.1 0-3.7 1.7-3.7 3.8 0 2.1 1.6 3.8 3.7 3.8 2 .1 3.7-1.6 3.7-3.7zM77.3 129.8c0-.9-.7-1.7-1.7-1.7s-1.7.8-1.7 1.7.8 1.7 1.7 1.7c1 .1 1.7-.7 1.7-1.7zm147 5.8zm-155.6 8V140c0-2.5-1.6-4.4-4-4.4-1.4 0-2.6.7-3.3 1.8v-1.5h-2.3v11h2.3v-6.3c.1-1.6 1.2-3 2.9-3 1.4 0 2.2 1.1 2.2 2.6v3.6c0 1.8 1.2 3.4 3.1 3.4.7 0 1.6-.2 2.2-.7v-2c-.5.4-1 .6-1.5.6-1 0-1.6-.7-1.6-1.5zm54.6-5.5-6.6 6.5c.7.4 1.5.6 2.4.6 1 0 2.3-.2 3.2-1v2.2c-1 .5-2.3.7-3.2.7-3.5 0-6.3-2.4-6.3-5.8 0-3.1 2.6-5.7 5.6-5.7 2.2 0 3.7.9 4.9 2.5zm-2.8.2c-.5-.4-1.3-.7-2-.7-2.1 0-3.5 1.7-3.5 3.8 0 .7.2 1.4.6 2l4.9-5.1zm-66.1 6.6c-1.1 0-1.7-.9-1.7-2v-18.2h-2.4v14.6c0 3-2.1 5.6-5.1 5.6-2.6 0-4-1.9-4-4.4v-9.6c0-3.7-2.3-6.5-6.1-6.5-3.4 0-5.8 2.1-5.8 5.5 0 1.9.9 3.6 2.4 4.7l1.7-1.6c-1-.7-1.7-1.9-1.7-3.2 0-1.9 1.5-3.2 3.3-3.2 2.3 0 3.7 2 3.7 4.2v9.6c0 3.6 2.3 6.6 6.1 6.6 2.4 0 4.4-.8 5.6-2.9.4 1.7 1.8 2.9 3.6 2.9.8 0 1.7-.2 2.6-.8V144c-.7.6-1.5.9-2.2.9zm53.8-1.3V136H106v6.3c-.1 1.5-1.2 3-2.7 3-1.6 0-2.4-1.1-2.4-2.6V136h-2.3v6.9c0 2.5 1.6 4.4 4.2 4.4 1.5 0 2.8-.9 3.4-2.3.4 1.4 1.6 2.2 2.9 2.2.8 0 1.6-.2 2.3-.7v-2c-.5.4-1 .6-1.6.6-1 0-1.6-.7-1.6-1.5zM85 115.7c.1-4.1.1-8.1.1-11.8 0-15.6-.6-27.4-1.7-35.6-.7-4.5-1.9-8.2-3.7-11-4-5.7-9.8-8.6-17.3-8.6h-.7c-4.9.2-10.8 2.3-17.9 6.4-3.6-4.3-8.6-6.5-15-6.5-.7 0-1.3 0-2 .1-2.2.3-4.6.8-7.2 1.6-1 .4-3.3 1.4-6.8 3.1l-.5-10.5-12.3.4 1.9 66.3h12.7l-1.4-42.3c4.9-3.5 8.8-5.4 11.9-5.7.7-.1 1.3-.1 1.8-.1 2.2 0 3.9.5 5.3 1.5 2.8 2.3 4.5 6.3 5 11.9l.8 17c0 6.3-.1 11.6-.2 15.8l12.7-.3c0-10.7-.5-20.6-1.4-29.7l-1.2-10.8c4.9-3.4 8.9-5.2 11.9-5.5.4-.1.7-.1 1.1-.1 2.9 0 5.2 1 7 3 2 2.2 3.2 5.7 3.7 10.5.5 7.6.7 14 .7 19.3v21.7H85zm-8.3 27.9v-7.7h-2.2v7.9c0 1.8 1.2 3.4 3 3.4.8 0 1.6-.2 2.3-.7v-2c-.5.4-1 .6-1.6.6-.9 0-1.5-.7-1.5-1.5zm66.9-7.7h2.3v13.2c0 2.2-1.6 4.7-4 5l-.8-1.9c1.4-.2 2.5-1.6 2.5-3v-4.1c-.9 1.4-2.4 2.1-4 2.1-3.2 0-5.5-2.6-5.5-5.8 0-3.1 2.3-5.8 5.5-5.8 1.6 0 3.1.7 4 2.1v-1.8zm0 4.6c-.2-1.6-1.7-3-3.6-3-2.1 0-3.7 1.8-3.7 3.8 0 2.1 1.6 3.8 3.7 3.8 1.9 0 3.4-1.4 3.6-3v-1.6zm80.7-4.9c-1.4 0-2.6.9-3.2 2.1v-1.8h-2.3v11h2.3V141c.1-1.2.7-2.3 1.7-2.8.3.7.9 1.1 1.6 1.1 1 0 1.8-.8 1.8-1.8 0-1.1-.9-1.9-1.9-1.9zm-69-85 .7 16.9c.6 15.6 1.2 28.9 2 40l13.5.4c-.8-11.9-1.5-24.8-2-38.6-.7-24.8-1.1-43.9-1.1-57.1.1-2.5.1-4.8.1-6.8l-12.8-.5c-.5 7.6-.8 15.2-.8 22.8 0 2 0 4 .1 6l.3 16.9zM85 115.7zm217.5-14c0-7.3-.2-13.5-.6-18.6-1-13.4-2.5-21.8-4.3-25.3-4-6.1-10-9.1-17.9-9.1h-.7c-2.5.2-4.6.5-6.3.9-2.2.8-5.5 2.2-9.8 4.3l-.6-9.8-12 .3 3.3 64.9h12.7l-2.6-41.6C270 63.3 275.1 61 279 61c4.3 0 7.2 2.2 8.7 6.5.9 5.8 1.4 10.2 1.4 13v1.3c.2 7.8.3 16.8.3 27.2l13 .3c.1-2.6.1-5.2.1-7.6zm56.2 41.9V140c0-2.5-1.6-4.4-4-4.4-1.4 0-2.6.7-3.3 1.8v-1.5h-2.3v11h2.3v-6.3c.1-1.6 1.2-3 2.9-3 1.4 0 2.2 1.1 2.2 2.6v3.6c0 1.8 1.2 3.4 3.1 3.4.7 0 1.6-.2 2.2-.7v-2c-.5.4-1 .6-1.5.6-1 0-1.6-.7-1.6-1.5zm-9.9-36.9c-5 1.6-9.7 2.5-13.9 2.5-3.8 0-7.8-.6-12.2-1.8l.2 8.6-12.7-.3-1.6-111.6 12.9-1.2.5 49.2c4.9-3.4 11-5 18.3-5h1c7.1.3 13.2 2.6 18.4 6.9 5.2 4.3 8.5 9.8 9.8 16.6.3 2.1.5 4.2.5 6.2 0 5.8-1.3 11.3-4 16.3-3.4 6.4-9.1 11-17.2 13.6zm5.8-19.3c1.6-2.7 2.5-5.7 2.6-8.8.1-.5.1-.9.1-1.4.1-4.5-1.7-8.5-5.2-12.2-3.7-3.8-7.4-5.7-11.1-5.7h-.5c-.7-.1-1.5-.1-2.2-.1-4.9 0-9.3 1.5-13.3 4.5-.8.6-1.7 1.4-2.8 2.5l.3 27.6c2.9 1.8 7.4 2.7 13.3 2.9h.7c8.2.2 14.2-3 18.1-9.3zm19.5 56.2V140c0-2.5-1.6-4.4-4-4.4-1.4 0-2.6.7-3.3 1.8v-1.5h-2.3v11h2.3v-6.3c.1-1.6 1.2-3 2.9-3 1.4 0 2.2 1.1 2.2 2.6v3.6c0 1.8 1.2 3.4 3.1 3.4.7 0 1.6-.2 2.2-.7v-2c-.5.4-1 .6-1.5.6-1 0-1.6-.7-1.6-1.5zm-40.7-7.7h2.3v13.2c0 2.2-1.6 4.7-4 5l-.8-1.9c1.4-.2 2.5-1.6 2.5-3v-4.1c-.9 1.4-2.4 2.1-4 2.1-3.2 0-5.5-2.6-5.5-5.8 0-3.1 2.3-5.8 5.5-5.8 1.6 0 3.1.7 4 2.1v-1.8zm0 4.6c-.2-1.6-1.7-3-3.6-3-2.1 0-3.7 1.8-3.7 3.8 0 2.1 1.6 3.8 3.7 3.8 1.9 0 3.4-1.4 3.6-3v-1.6zm49.3-10.7c0-.9-.7-1.7-1.7-1.7s-1.7.8-1.7 1.7.8 1.7 1.7 1.7c.9.1 1.7-.7 1.7-1.7zm-39.4 13.8v-7.7H341v7.9c0 1.8 1.2 3.4 3 3.4.8 0 1.6-.2 2.3-.7v-2c-.5.4-1 .6-1.6.6-.9 0-1.4-.7-1.4-1.5zm.6-13.8c0-.9-.7-1.7-1.7-1.7s-1.7.8-1.7 1.7c0 .9.8 1.7 1.7 1.7.9.1 1.7-.7 1.7-1.7zm78.7 7.3-1.2-1.6c-1.3.6-2.1 1.7-2.1 3.2 0 2.2 2.4 3.2 2.4 5 0 .8-.7 1.5-1.5 1.5-.7 0-1.4-.3-1.9-.8v2.2c.7.5 1.6.6 2.5.6 1.9 0 3.2-1.5 3.2-3.3 0-2.5-2.4-3.6-2.4-5.2 0-.7.4-1.3 1-1.6zM411.1 49l.8 43.1c-5.7 4.4-10.5 6.7-14.4 6.7-4.7 0-7.8-2.6-9.3-7.7-.6-2.7-1-7.1-1.2-13.3-.2-7.8-.3-16.8-.3-27.1l-13.1-.3v4.1c0 7.5.3 14.9.8 22.2 1.2 13.7 2.6 22.2 4.1 25.3 1.8 3.2 4.4 5.5 7.9 7s7 2.2 10.7 2.2c4.8-.2 9.9-1.8 15.3-5l.3 10.8 12.3-.3-1.2-67.7h-12.7zm-89.8 89.1-6.6 6.5c.7.4 1.5.6 2.4.6 1 0 2.3-.2 3.2-1v2.2c-1 .5-2.3.7-3.2.7-3.5 0-6.3-2.4-6.3-5.8 0-3.1 2.6-5.7 5.6-5.7 2.2 0 3.7.9 4.9 2.5zm-2.8.2c-.5-.4-1.3-.7-2-.7-2.1 0-3.5 1.7-3.5 3.8 0 .7.2 1.4.6 2l4.9-5.1zm181.5-.5c0 9.7-4.4 17-13.2 21.9-6 3.4-12.7 5.1-19.9 5.1-1 0-1.9 0-2.9-.1-3-.2-5-.4-6-.7-8.7-2.5-14.7-7.2-17.9-14-1.7-3.8-2.5-7.1-2.5-10.2 0-4.2.8-7.8 2.4-11-1.2-1.2-2.2-2.3-3-3.5-2.5-3.3-3.7-6.7-3.7-10.2 0-.9.1-1.7.2-2.5.5-4.6 2.3-8.4 5.4-11.7-1.3-1.2-2.5-2.4-3.6-3.8-3.2-4-5-8.8-5.5-14.4-.2-1.3-.2-2.7-.2-4 0-6.3 1.7-12.4 5.1-18.1 4.4-7.2 10.4-11.7 18-13.4 3.1-.6 5.9-.8 8.5-.8 5.5 0 10.1.8 13.5 2.4.3 0 .5.1.8.3l9.7-11.3 9.8 8.4L485 57c2.4 2.9 4 6.8 5 11.6.7 3.6 1.1 6.9 1.1 10 0 1 0 2-.1 3-.5 5.3-1.7 9.8-3.4 13.5-3.6 7.1-9.2 11.3-16.7 12.7-2.3.5-5.6.7-9.9.7-4 0-8.1-.7-12.3-2.1l-.4.3c-2 1.3-2.9 3.6-2.9 6.8 0 3.3 1.2 5.7 3.5 7.1 3.6-2 9.2-3.5 16.6-4.3 1.8-.3 4-.4 6.6-.4 1.1 0 2.2 0 3.4.1 8 .5 14.5 3.3 19.5 8.3 3.2 3.7 5 8.2 5 13.5zm-44.3-42.6c2.6.6 4.8.8 6.7.8.5.1.9.1 1.4.1 1.9 0 3.7-.3 5.4-.9 3.1-1.5 5.6-4.1 7.6-7.6 1.5-2.9 2.3-6.3 2.3-10.1 0-.8 0-1.6-.1-2.5-.3-2.7-.9-5.3-1.8-7.7-2.2-4.5-5-7.4-8.7-8.8-2.6-.9-5.5-1.4-8.6-1.4h-.2c-5.4 0-9.8 2.3-13.2 7-2.9 3.8-4.4 7.9-4.4 12.1 0 1 .1 1.9.3 2.9.9 8.7 5.3 14.1 13.3 16.1zm30.8 45c0-7.8-4.6-12.2-13.7-13.2-.7-.1-1.7-.2-3-.2-1.1-.2-2.3-.2-3.5 0-6.9.2-11.6 2.4-14.3 6.7-.7 1.1-1 2.6-1 4.3v1.1c.5 4.4 1.6 7.8 3.4 10.3 1.8 2.4 4.8 4 8.9 4.8 1.3.3 3.1.4 5.3.4 1 0 2 0 3.1-.1 7.3-.7 12-3.9 14.1-9.6.5-1.4.7-2.9.7-4.5zm-104.4 3.4v-7.7h-2.2v7.9c0 1.8 1.2 3.4 3 3.4.8 0 1.6-.2 2.3-.7v-2c-.5.4-1 .6-1.6.6-.9 0-1.5-.7-1.5-1.5zm15.4 0V140c0-2.5-1.6-4.4-4-4.4-1.4 0-2.6.7-3.3 1.8v-1.5h-2.3v11h2.3v-6.3c.1-1.6 1.2-3 2.9-3 1.4 0 2.2 1.1 2.2 2.6v3.6c0 1.8 1.2 3.4 3.1 3.4.7 0 1.6-.2 2.2-.7v-2c-.5.4-1 .6-1.5.6-1 0-1.6-.7-1.6-1.5zm14.3-7.7h2.3v13.2c0 2.2-1.6 4.7-4 5l-.8-1.9c1.4-.2 2.5-1.6 2.5-3v-4.1c-.9 1.4-2.4 2.1-4 2.1-3.2 0-5.5-2.6-5.5-5.8 0-3.1 2.3-5.8 5.5-5.8 1.6 0 3.1.7 4 2.1v-1.8zm-.1 4.6c-.2-1.6-1.7-3-3.6-3-2.1 0-3.7 1.8-3.7 3.8 0 2.1 1.6 3.8 3.7 3.8 1.9 0 3.4-1.4 3.6-3v-1.6zm-130.9-4.9c-1.1 0-2 .9-2 2 0 1.2.9 2 2 2v2.8c0 1.7-.9 2.9-2.7 2.9-1.7 0-2.7-1.2-2.7-2.9V136h-2.2v6.5c0 1.6-.8 2.8-2.6 2.8-1.7 0-2.6-1.2-2.6-2.8V136h-2.3v6.6c0 2.9 2 4.7 4.8 4.7 1.6 0 3.1-.8 3.7-2.4.6 1.6 2.1 2.4 3.7 2.4 2.9 0 4.8-1.8 4.8-4.7v-4.9c.1-1.1-.7-2.1-1.9-2.1zm-35.1-49c-2.7 10.9-8.8 20.4-17.2 26.6-6.4 4.7-13.5 7.1-20.6 7.1-2.5 0-5-.3-7.5-.9-19.3-4.8-30.4-27.3-24.7-50.2 5.7-22.9 26.1-37.6 45.4-32.8 9.5 2.4 17.3 9 22 18.7 4.4 9.4 5.3 20.6 2.6 31.5zM236 59.7c-3.6-7.7-9.7-12.9-17.2-14.8-1.9-.5-3.9-.7-5.9-.7-13.4 0-25.9 11.2-29.7 26.7-2.1 8.7-1.4 17.5 2.2 25 3.6 7.7 9.7 12.9 17.2 14.8 1.9.5 3.9.7 5.9.7 13.4 0 25.9-11.2 29.7-26.7 2.1-8.7 1.3-17.6-2.2-25zm11.1 83.9V140c0-2.5-1.6-4.4-4-4.4-1.4 0-2.6.7-3.3 1.8v-1.5h-2.3v11h2.3v-6.3c.1-1.6 1.2-3 2.9-3 1.4 0 2.2 1.1 2.2 2.6v3.6c0 1.8 1.2 3.4 3.1 3.4.7 0 1.6-.2 2.2-.7v-2c-.5.4-1 .6-1.5.6-1 0-1.6-.7-1.6-1.5zm55.9-8c-1.1 0-2.2.9-2.2 2.1 0 1 .9 1.9 1.9 1.9.8 0 1.5-.5 1.6-1.2.9.5 1.3 1.8 1.3 2.7 0 2.2-1.6 3.9-3.6 3.9s-3.6-1.6-3.6-3.6v-16.6h-2.3v16.6c0 3.2 2.6 5.8 5.8 5.8 3.2 0 5.8-2.7 5.8-6 0-2.7-1.5-5.6-4.7-5.6zm-69.5-74.7c3.3 6.9 4 15.1 2 23.1-3.5 14.3-14.9 24.6-27 24.6-1.7 0-3.5-.2-5.2-.6-6.6-1.7-12.1-6.4-15.3-13.3-3.3-6.9-4-15.1-2-23.1 3.5-14.3 14.9-24.6 27-24.6 1.7 0 3.5.2 5.2.6 6.6 1.7 12 6.4 15.3 13.3zm-34.7 15.4c2.7.6 5.1.3 5.3-.6s-1.8-2.2-4.5-2.9c-2.7-.6-5.1-.3-5.3.6-.2 1 1.8 2.3 4.5 2.9zm6.6 12.5c-.3-1-2.6-1.1-5.3-.4-2.7.7-4.6 2.1-4.4 3 .3 1 2.6 1.1 5.3.4 2.7-.7 4.6-2.1 4.4-3zm1.6-25.7c-2.1-1.8-4.3-2.7-5-1.9-.6.7.5 2.8 2.7 4.6 2.1 1.8 4.3 2.7 5 1.9.6-.8-.6-2.8-2.7-4.6zm10.2 27.7c-2-2-4.1-3-4.8-2.3s.3 2.9 2.3 4.8c2 2 4.1 3 4.8 2.3s-.3-2.8-2.3-4.8zm5.5-10.8c-2.6-.8-5-.7-5.3.2-.3.9 1.6 2.4 4.3 3.2 2.6.8 5 .7 5.3-.2.2-1-1.7-2.4-4.3-3.2zm4.4-15.1c-.2-1-2.5-1.3-5.3-.8-2.7.5-4.8 1.7-4.6 2.7s2.5 1.3 5.3.8c2.7-.6 4.7-1.8 4.6-2.7zm75.9 70.7zm-40.8 2.5-6.6 6.5c.7.4 1.5.6 2.4.6 1 0 2.3-.2 3.2-1v2.2c-1 .5-2.3.7-3.2.7-3.5 0-6.3-2.4-6.3-5.8 0-3.1 2.6-5.7 5.6-5.7 2.2 0 3.6.9 4.9 2.5zm-2.8.2c-.5-.4-1.3-.7-2-.7-2.1 0-3.5 1.7-3.5 3.8 0 .7.2 1.4.6 2l4.9-5.1z"/>
</svg>