<svg xmlns="http://www.w3.org/2000/svg" viewBox="0 0 340 500">
	<title>Melonbug</title>
  <path fill="#fff" d="M183.7 197.2c-7.1-1.8-14.3-2.7-21.6-2.7-50.5 0-97.8 43.1-112.4 102.4-8.2 33.5-5.3 67.7 8.2 96.3 13.6 28.7 36.3 48.4 63.9 55.3 7.1 1.8 14.3 2.7 21.6 2.7 50.5 0 97.8-43.1 112.4-102.4 8.2-33.5 5.3-67.7-8.2-96.3-13.6-28.7-36.3-48.4-63.9-55.3zM84.6 304.7c.9-4 10.8-5.1 22-2.6 11.3 2.6 19.6 7.9 18.7 11.9-.9 4-10.8 5.1-22 2.6-11.2-2.6-19.6-7.9-18.7-11.9zm27.8 76.5c-11.2 3-21.1 2.2-22.1-1.8-1.1-4 7.1-9.6 18.3-12.6 11.2-3 21.1-2.2 22.1 1.8s-7.2 9.6-18.3 12.6zm35.9-100.4c-2.7 3.1-11.9-.5-20.7-8-8.8-7.5-13.7-16.1-11-19.2 2.7-3.1 11.9.5 20.7 8 8.7 7.5 13.6 16.1 11 19.2zm41.1 116.3c-2.9 2.9-11.9-1.4-20-9.6-8.2-8.2-12.4-17.2-9.5-20 2.9-2.9 11.9 1.4 20 9.6 8.2 8.2 12.4 17.1 9.5 20zm30.9-51.8c-1.2 3.9-11.1 4.3-22.2.9-11-3.4-19-9.4-17.8-13.3s11.1-4.3 22.2-.9 19.1 9.4 17.8 13.3zm-18.6-65.2c-11.4 2.1-21.2.5-21.9-3.5-.7-4 7.9-9 19.2-11.1 11.4-2.1 21.2-.5 21.9 3.5.7 4.1-7.9 9-19.2 11.1zm-6-129.6C115.2 130.4 30.5 191.7 6.8 287-17 382.3 29.2 476.1 109.6 496.1c10.3 2.6 20.8 3.9 31.4 3.9 29.6 0 59.3-10.1 85.8-29.8 34.9-25.8 60.4-65.1 71.7-110.6 11.3-45.5 7.3-92.2-11.5-131.3-19.2-40.3-51.7-68-91.3-77.8zm71.2 201c-15.8 64.4-67.8 111.1-123.5 111.1-8.2 0-16.4-1-24.4-3-31-7.8-56.4-29.6-71.4-61.5-14.7-31-17.9-67.9-9-103.9C54.5 229.8 106.4 183 162.1 183c8.2 0 16.4 1 24.4 3 31 7.8 56.4 29.6 71.4 61.5 14.7 31 17.9 67.9 9 104zm68.9-278.4c-3.3 4.2-7.9 3.8-14.3 3.3-4-.3-8.9-.7-14.9-.2-12.1 1.2-29.8 10.2-42.2 27.7 18.6 19 30.1 45 30.1 73.7 0 8.2-1 16.1-2.8 23.8-22-34.5-54-58.2-91.9-67.7-11.5-2.9-23.3-4.3-35.1-4.3-27 0-53.3 7.5-77.1 20.9 10.2-38 41.1-67.6 79.9-75.8-3.2-20.3-14.1-35.8-24-42.2-5-3.3-9.5-5.2-13.2-6.8-5.9-2.5-10.2-4.4-11.1-9.6-.6-3.7 0-9.3 2.9-12.9 1.6-1.9 3.6-3 5.9-3 11.9-.4 24.4 5.8 35.8 17.7 14.4 15 25.4 38.4 26.3 54.6 20.9.2 40.3 6.4 56.6 17.1 8.4-13.8 29.1-29.1 48.7-35.7 15.6-5.2 29.5-4.8 40 1.1 2 1.1 3.3 3 3.8 5.4 1 4.6-1.1 9.9-3.4 12.9z"/>
</svg>