<svg xmlns="http://www.w3.org/2000/svg" viewBox="0 0 500 500">
	<title>Melonbug</title>
  <path fill="#fff" d="M0 0h500v500H0z"/>
  <path fill="#456a63" d="M245.58 44.291c13.899 14.574 24.351 37.98 23.299 52.171l-.104 1.395-19.522.454-.169-1.387c-2.313-19.13-12.489-33.726-21.549-39.702-4.432-2.926-8.457-4.65-11.693-6.038-5.241-2.246-9.025-3.869-9.822-8.516-.566-3.298.005-8.278 2.591-11.427 1.39-1.692 3.204-2.613 5.243-2.668 10.569-.332 21.651 5.152 31.726 15.718Zm155.333 37.697c-.432-2.144-1.598-3.809-3.375-4.814-9.308-5.256-21.542-5.598-35.399-.985-19.108 6.363-39.31 22.135-45.032 35.163l-.561 1.281 17.031 9.554.799-1.149c11.01-15.812 26.84-23.934 37.644-24.969 5.281-.504 9.648-.146 13.157.149 5.685.474 9.79.816 12.673-2.921 2.04-2.645 3.871-7.313 3.062-11.308Z"/>
  <path fill="#689753" d="M354.692 230.77c16.605 34.669 20.22 75.986 10.182 116.322-10.04 40.347-32.601 75.144-63.521 97.988-23.516 17.375-49.77 26.361-76.021 26.361a115.07 115.07 0 0 1-27.795-3.412c-71.259-17.734-112.139-100.844-91.131-185.263 21.011-84.414 96.079-138.671 167.338-120.931 35.092 8.734 63.84 33.215 80.949 68.936Z"/>
  <path fill="#cbffb3" d="M328.915 247.846c-13.373-28.233-35.849-47.585-63.287-54.491a88.555 88.555 0 0 0-21.594-2.676c-49.352 0-95.36 41.391-109.397 98.418-7.858 31.927-5.031 64.614 7.96 92.04 13.373 28.234 35.849 47.585 63.287 54.49a88.537 88.537 0 0 0 21.594 2.676c49.351 0 95.358-41.391 109.395-98.418 7.859-31.925 5.033-64.612-7.959-92.04Z"/>
  <path fill="#f46964" d="M319.729 252.197c11.993 25.32 14.577 55.598 7.275 85.26-12.934 52.545-54.79 90.683-99.525 90.683a78.37 78.37 0 0 1-19.114-2.369c-24.438-6.15-44.532-23.546-56.582-48.984-11.993-25.319-14.577-55.598-7.276-85.26 12.934-52.546 54.791-90.683 99.527-90.683a78.43 78.43 0 0 1 19.114 2.368c24.438 6.15 44.532 23.547 56.581 48.985Z"/>
  <path d="M231.751 277.271c-2.366 2.758-10.577-.404-18.34-7.063-7.763-6.658-12.139-14.292-9.773-17.05 2.366-2.758 10.577.404 18.34 7.062 7.763 6.659 12.139 14.292 9.773 17.051Zm-20.298 29.47c.815-3.541-6.605-8.271-16.572-10.564-9.967-2.293-18.708-1.281-19.522 2.26-.815 3.541 6.605 8.271 16.572 10.563 9.967 2.293 18.708 1.281 19.522-2.26Zm-14.879 46.743c-9.883 2.634-17.135 7.616-16.2 11.127.936 3.511 9.706 4.222 19.588 1.588 9.883-2.634 17.136-7.615 16.2-11.126-.936-3.511-9.706-4.222-19.589-1.588Zm82.494-76.804c10.058-1.858 17.675-6.261 17.015-9.835-.66-3.573-9.348-4.963-19.406-3.105-10.057 1.858-17.676 6.261-17.015 9.834.66 3.573 9.348 4.964 19.406 3.106Zm.776 45.973c-9.77-3.024-18.562-2.661-19.636.81-1.075 3.471 5.975 8.737 15.745 11.76 9.77 3.024 18.562 2.661 19.636-.81 1.075-3.471-5.975-8.736-15.745-11.76Zm-37.814 31.448c-2.573 2.566 1.196 10.517 8.419 17.758 7.223 7.242 15.163 11.032 17.736 8.466 2.573-2.566-1.196-10.517-8.419-17.759-7.223-7.242-15.163-11.032-17.736-8.466Z"/>
  <path fill="#588046" d="M246.323 143.227a128.9 128.9 0 0 1 31.102 3.812c33.59 8.36 61.917 29.392 81.412 59.935 1.567-6.779 2.477-13.808 2.477-21.064 0-51.521-41.766-93.287-93.286-93.287-43.152 0-79.358 29.342-90.015 69.132 21.121-11.876 44.423-18.529 68.309-18.529Z"/>
</svg>