<svg xmlns="http://www.w3.org/2000/svg" viewBox="0 0 500 500">
	<title>Melonbug</title>
  <path fill="#fff" d="M258.9 351.7c6.5 6.5 9.9 13.7 7.6 16s-9.5-1.1-16-7.6-9.9-13.7-7.6-16 9.5 1.1 16 7.6zm18.2-36.1c-8.8-2.8-16.7-2.4-17.7.7-1 3.1 5.4 7.9 14.2 10.6 8.8 2.8 16.7 2.4 17.7-.7.9-3.1-5.4-7.8-14.2-10.6zm-61.8-14.4c.7-3.2-6-7.4-15-9.5-9-2.1-16.9-1.2-17.6 2-.8 3.2 5.9 7.5 15 9.5 9 2.1 16.9 1.2 17.6-2zm58.9-38.8c-9.1 1.7-16 5.7-15.4 8.9.6 3.2 8.4 4.5 17.5 2.8 9.1-1.7 16-5.7 15.4-8.9-.6-3.2-8.4-4.5-17.5-2.8zm-72.4 81.1c-8.9 2.3-15.4 6.8-14.6 10 .9 3.1 8.8 3.8 17.7 1.4 8.9-2.3 15.5-6.8 14.6-10-.9-3.1-8.8-3.8-17.7-1.4zm23-84.3c-7-6-14.5-8.9-16.6-6.4-2.2 2.5 1.8 9.4 8.8 15.4s14.5 8.9 16.6 6.4c2.2-2.5-1.8-9.4-8.8-15.4zm96.6-11.1c11.7 24.7 14.3 54.2 7.2 83.1-12.7 51.5-54.2 88.9-98.8 88.9-6.6 0-13.1-.8-19.5-2.4-24.8-6.2-45.1-23.7-57.2-49.2-11.7-24.8-14.3-54.3-7.2-83.1 12.7-51.5 54.2-88.9 98.8-88.9 6.6 0 13.1.8 19.5 2.4 24.8 6.2 45.1 23.7 57.2 49.2zm-8.3 3.9c-10.9-23-29-38.7-51.1-44.2-5.6-1.4-11.4-2.1-17.3-2.1-40.4 0-78.2 34.4-89.9 81.9-6.6 26.8-4.3 54.1 6.6 77 10.9 23 29 38.7 51.1 44.2 5.6 1.4 11.4 2.1 17.3 2.1 40.4 0 78.2-34.4 89.9-81.9 6.5-26.8 4.2-54.1-6.6-77zm186.9-2c0 138.1-111.9 250-250 250S0 388.1 0 250 111.9 0 250 0s250 111.9 250 250zm-155.3-17.4c-15.5-32.3-41.4-54.4-73.1-62.3-64.4-16-132.2 33-151.1 109.2-19 76.2 17.9 151.3 82.3 167.3 8.3 2.1 16.7 3.1 25.1 3.1 23.7 0 47.4-8.1 68.7-23.8 27.9-20.6 48.3-52.1 57.4-88.5 8.9-36.3 5.6-73.7-9.3-105zm41.7-134.3c-.3-1.9-1.4-3.4-3-4.3-8.4-4.8-19.5-5.1-32-.9-15.7 5.2-32.3 17.5-39 28.5-13-8.5-28.5-13.5-45.2-13.7-.7-12.9-9.6-31.7-21.1-43.7-9.1-9.5-19.2-14.5-28.7-14.2-1.8 0-3.4.9-4.7 2.4-2.3 2.8-2.8 7.3-2.3 10.3.7 4.2 4.2 5.7 8.9 7.7 3 1.3 6.6 2.9 10.6 5.5 7.9 5.2 16.7 17.5 19.2 33.8-31.1 6.5-55.8 30.2-63.9 60.6 19.1-10.7 40.1-16.7 61.7-16.7 9.5 0 18.9 1.1 28.1 3.4 30.3 7.5 55.9 26.5 73.5 54.1 1.4-6.1 2.2-12.4 2.2-19 0-22.9-9.2-43.7-24.1-58.9 9.9-14 24-21.3 33.7-22.2 4.8-.5 8.7-.2 11.9.1 5.1.5 8.8.8 11.4-2.6 1.9-2.4 3.5-6.6 2.8-10.2z"/>
</svg>