<svg xmlns="http://www.w3.org/2000/svg" viewBox="0 0 500 500">
	<title>Melonbug</title>
  <path d="M0 0h500v500H0V0Z"/>
  <path fill="#fff" d="M263.148 203.212a78.412 78.412 0 0 0-19.114-2.368c-44.736 0-86.593 38.137-99.527 90.683-7.301 29.662-4.717 59.941 7.276 85.26 12.05 25.438 32.144 42.834 56.582 48.984a78.358 78.358 0 0 0 19.114 2.369c44.735 0 86.591-38.138 99.525-90.683 7.302-29.662 4.718-59.94-7.275-85.26-12.049-25.438-32.143-42.835-56.581-48.985Zm-87.789 95.225c.814-3.541 9.555-4.553 19.522-2.26 9.967 2.293 17.387 7.023 16.572 10.564-.814 3.54-9.555 4.552-19.522 2.259-9.967-2.292-17.387-7.022-16.572-10.563Zm24.603 67.762c-9.882 2.634-18.652 1.923-19.588-1.588-.935-3.511 6.317-8.493 16.2-11.127h-.001c9.883-2.633 18.653-1.922 19.589 1.589.936 3.511-6.317 8.492-16.2 11.126Zm31.789-88.928c-2.366 2.758-10.577-.404-18.34-7.063-7.763-6.658-12.139-14.292-9.773-17.05 2.366-2.758 10.577.404 18.34 7.062 7.763 6.659 12.139 14.292 9.773 17.051Zm36.434 103.054c-2.573 2.566-10.513-1.224-17.736-8.466-7.223-7.241-10.992-15.192-8.419-17.758 2.573-2.567 10.513 1.223 17.736 8.465s10.992 15.193 8.419 17.759Zm27.404-45.912c-1.074 3.471-9.866 3.834-19.636.81-9.77-3.023-16.82-8.289-15.745-11.76 1.074-3.471 9.866-3.834 19.636-.81s16.82 8.289 15.745 11.76Zm-16.521-57.733c-10.058 1.858-18.746.467-19.406-3.106-.661-3.573 6.958-7.976 17.015-9.834 10.058-1.858 18.746-.468 19.406 3.105.66 3.574-6.957 7.977-17.015 9.835Zm75.625-45.909c-17.109-35.721-45.857-60.202-80.949-68.936-71.259-17.74-146.327 36.517-167.338 120.931-21.008 84.419 19.872 167.529 91.131 185.263a115.033 115.033 0 0 0 27.795 3.412c26.251 0 52.505-8.986 76.021-26.361 30.92-22.844 53.481-57.641 63.521-97.988 10.038-40.336 6.423-81.653-10.182-116.322h.001Zm-17.82 109.114c-14.037 57.027-60.044 98.418-109.395 98.418-7.281 0-14.533-.9-21.594-2.676-27.438-6.905-49.914-26.256-63.287-54.49-12.991-27.426-15.818-60.113-7.96-92.04 14.037-57.027 60.045-98.418 109.397-98.418 7.281 0 14.533.9 21.594 2.676 27.438 6.906 49.914 26.258 63.287 54.491h-.001c12.992 27.427 15.818 60.114 7.959 92.039ZM397.85 93.297c-2.883 3.737-6.988 3.395-12.673 2.921-3.509-.295-7.876-.653-13.157-.149-10.711 1.026-26.354 9.028-37.351 24.571 16.48 16.824 26.645 39.858 26.645 65.27 0 7.256-.91 14.285-2.477 21.064-19.495-30.543-47.822-51.575-81.412-59.935a128.88 128.88 0 0 0-31.102-3.812h-.001c-23.886 0-47.188 6.652-68.309 18.528 9.024-33.691 36.366-59.885 70.731-67.125-2.817-17.994-12.517-31.674-21.209-37.408-4.432-2.926-8.457-4.65-11.693-6.038-5.241-2.246-9.025-3.869-9.822-8.516-.566-3.298.005-8.278 2.591-11.427 1.39-1.692 3.204-2.613 5.243-2.668 10.569-.332 21.651 5.152 31.726 15.718 12.713 13.33 22.536 34.045 23.316 48.343 18.481.169 35.676 5.71 50.102 15.14 7.465-12.215 25.754-25.795 43.141-31.585 13.857-4.613 26.091-4.271 35.399.985 1.777 1.005 2.943 2.67 3.375 4.814.809 3.996-1.022 8.664-3.062 11.309Z"/>
</svg>