<svg xmlns="http://www.w3.org/2000/svg" viewBox="0 0 500 500">
	<title>Melonbug</title>
  <circle cx="250" cy="250" r="250" fill="#fff"/>
  <path fill="#456a63" d="M246.104 64.209c12.553 13.163 21.993 34.302 21.043 47.12l-.094 1.26-17.632.41-.152-1.253c-2.089-17.278-11.28-30.461-19.463-35.857-4.003-2.642-7.638-4.2-10.561-5.453-4.734-2.028-8.151-3.494-8.871-7.692-.511-2.979.004-7.477 2.34-10.321 1.255-1.529 2.893-2.36 4.736-2.409 9.545-.3 19.555 4.653 28.654 14.196Zm140.293 34.047c-.39-1.936-1.443-3.44-3.048-4.348-8.407-4.747-19.456-5.056-31.971-.89-17.258 5.747-35.504 19.992-40.672 31.758l-.507 1.157 15.382 8.629.722-1.038c9.944-14.281 24.241-21.617 33.999-22.551 4.769-.455 8.714-.132 11.883.135 5.135.428 8.842.737 11.446-2.638 1.842-2.389 3.496-6.605 2.766-10.213Z"/>
  <path fill="#689753" d="M344.652 232.632c14.997 31.312 18.262 68.629 9.196 105.059-9.068 36.44-29.444 67.868-57.371 88.5-21.239 15.693-44.951 23.808-68.661 23.808-8.406 0-16.81-1.02-25.104-3.082-64.359-16.017-101.281-91.08-82.308-167.325 18.976-76.24 86.776-125.244 151.135-109.222 31.694 7.888 57.659 29.999 73.111 62.261Z"/>
  <path fill="#cbffb3" d="M321.371 248.054c-12.078-25.5-32.378-42.978-57.159-49.215a79.982 79.982 0 0 0-19.503-2.417c-44.573 0-86.126 37.383-98.804 88.889-7.097 28.836-4.544 58.358 7.189 83.128 12.079 25.5 32.378 42.978 57.159 49.214a79.964 79.964 0 0 0 19.503 2.417c44.572 0 86.125-37.383 98.803-88.889 7.098-28.834 4.545-58.356-7.188-83.128Z"/>
  <path fill="#f46964" d="M313.074 251.984c10.832 22.868 13.166 50.215 6.571 77.005-11.682 47.457-49.485 81.903-89.889 81.903-5.814 0-11.623-.72-17.263-2.14-22.071-5.554-40.22-21.266-51.103-44.241-10.831-22.867-13.165-50.215-6.572-77.005 11.682-47.458 49.486-81.903 89.89-81.903 5.814 0 11.622.72 17.263 2.139 22.072 5.555 40.22 21.267 51.103 44.242Z"/>
  <path d="M233.614 274.631c-2.136 2.491-9.553-.365-16.564-6.379-7.011-6.014-10.963-12.908-8.827-15.399 2.137-2.491 9.553.365 16.564 6.379 7.011 6.014 10.964 12.908 8.827 15.4Zm-18.332 26.617c.736-3.198-5.965-7.47-14.968-9.541-9.002-2.071-16.896-1.157-17.632 2.042-.736 3.198 5.965 7.47 14.968 9.541 9.002 2.071 16.896 1.157 17.632-2.041Zm-13.439 42.217c-8.926 2.379-15.476 6.878-14.631 10.049.845 3.171 8.766 3.814 17.692 1.434 8.926-2.379 15.477-6.878 14.631-10.049-.845-3.171-8.766-3.813-17.692-1.435Zm74.506-69.368c9.084-1.679 15.964-5.655 15.368-8.882-.596-3.227-8.443-4.483-17.527-2.805-9.083 1.678-15.964 5.655-15.368 8.882.596 3.227 8.443 4.483 17.527 2.805Zm.701 41.522c-8.824-2.731-16.765-2.404-17.735.732-.971 3.135 5.397 7.891 14.221 10.622s16.765 2.404 17.735-.732c.971-3.135-5.397-7.891-14.221-10.622Zm-34.153 28.403c-2.324 2.318 1.081 9.498 7.604 16.039 6.523 6.54 13.695 9.964 16.019 7.647 2.324-2.318-1.081-9.499-7.604-16.039-6.523-6.54-13.695-9.964-16.019-7.646Z"/>
  <path fill="#588046" d="M246.776 153.566c9.462 0 18.914 1.158 28.091 3.443 30.338 7.551 55.922 26.546 73.529 54.132 1.415-6.123 2.237-12.471 2.237-19.024 0-46.532-37.722-84.254-84.254-84.254-38.974 0-71.674 26.501-81.299 62.438 19.076-10.726 40.122-16.735 61.695-16.735Z"/>
</svg>