<svg xmlns="http://www.w3.org/2000/svg" data-name="Layer 1" viewBox="0 0 340 500">
	<title>Melonbug</title>
  <path fill="#fff" d="M335.789 73.086c-3.255 4.219-7.889 3.832-14.308 3.297-3.961-.333-8.892-.737-14.854-.168-12.093 1.158-29.754 10.192-42.169 27.741 18.606 18.994 30.083 44.999 30.083 73.689 0 8.191-1.027 16.127-2.797 23.78-22.009-34.482-53.989-58.226-91.912-67.665a145.487 145.487 0 0 0-35.114-4.304c-26.966 0-53.274 7.511-77.119 20.919 10.189-38.042 41.066-67.617 79.871-75.786-3.179-20.319-14.149-35.756-23.964-42.23-5.003-3.303-9.548-5.25-13.201-6.816-5.917-2.535-10.189-4.367-11.089-9.615-.639-3.723.006-9.346 2.925-12.901 1.569-1.911 3.617-2.95 5.92-3.012 11.932-.375 24.443 5.816 35.818 17.745 14.353 15.049 25.443 38.436 26.323 54.579 20.864.19 40.277 6.446 56.564 17.091 8.428-13.79 29.076-29.123 48.705-35.659 15.644-5.208 29.455-4.821 39.964 1.112 2.006 1.134 3.323 3.014 3.81 5.435.913 4.511-1.154 9.78-3.457 12.767Zm-140.113 77.378C115.227 130.436 30.477 191.691 6.757 286.991c-23.717 95.307 22.435 189.135 102.884 209.156a129.87 129.87 0 0 0 31.379 3.852c29.637 0 59.277-10.145 85.826-29.76 34.908-25.791 60.379-65.075 71.714-110.625 11.332-45.537 7.251-92.183-11.495-131.324-19.315-40.328-51.771-67.966-91.389-77.826Z"/>
  <path d="M257.964 247.568c-15.098-31.875-40.472-53.722-71.449-61.518a99.976 99.976 0 0 0-24.379-3.021c-55.716 0-107.658 46.729-123.505 111.111-8.871 36.044-5.68 72.947 8.986 103.911 15.098 31.875 40.473 53.722 71.449 61.517a99.952 99.952 0 0 0 24.379 3.021c55.715 0 107.656-46.729 123.503-111.111 8.873-36.042 5.682-72.945-8.985-103.911Zm-2.157 101.168c-14.602 59.322-61.856 102.378-112.361 102.378-7.268 0-14.528-.9-21.579-2.674-27.589-6.943-50.276-26.582-63.879-55.301-13.539-28.584-16.457-62.768-8.215-96.256 14.602-59.322 61.857-102.379 112.362-102.379 7.268 0 14.528.9 21.579 2.674 27.59 6.944 50.276 26.584 63.878 55.302 13.539 28.585 16.457 62.768 8.214 96.256Zm-107.539-67.947c-2.671 3.114-11.941-.456-20.706-7.973-8.764-7.517-13.704-16.135-11.033-19.249 2.671-3.114 11.941.456 20.706 7.973 8.764 7.517 13.705 16.135 11.033 19.249Zm-44.955 35.822c-11.253-2.589-19.63-7.928-18.71-11.926.919-3.998 10.787-5.14 22.04-2.552 11.253 2.589 19.63 7.928 18.71 11.926-.919 3.998-10.787 5.14-22.04 2.551Zm27.357 52.013c1.056 3.964-7.132 9.588-18.289 12.561-11.157 2.974-21.058 2.171-22.115-1.793-1.056-3.964 7.132-9.588 18.289-12.562 11.157-2.973 21.058-2.171 22.115 1.793Zm49.227 8.461c8.154 8.176 12.409 17.152 9.504 20.049-2.904 2.897-11.869-1.383-20.023-9.558-8.154-8.176-12.409-17.151-9.504-20.049 2.905-2.897 11.869 1.382 20.023 9.558Zm40.444-31.784c-1.213 3.919-11.138 4.328-22.169.914-11.03-3.414-18.989-9.358-17.776-13.277 1.213-3.919 11.138-4.328 22.169-.914s18.989 9.359 17.776 13.277Zm.557-76.283c.745 4.034-7.855 9.005-19.21 11.103-11.354 2.098-21.163.528-21.908-3.506-.746-4.034 7.855-9.005 19.21-11.103 11.355-2.098 21.163-.528 21.909 3.506Z"/>
</svg>