<svg xmlns="http://www.w3.org/2000/svg" viewBox="0 0 340 500">
	<title>Melonbug</title>
  <path fill="#456a63" d="M163.881 17.761c15.692 16.453 27.492 42.878 26.304 58.9l-.118 1.575-22.04.513-.191-1.566c-2.611-21.597-14.1-38.076-24.329-44.822-5.003-3.303-9.548-5.25-13.201-6.816-5.917-2.535-10.189-4.368-11.089-9.615-.639-3.723.006-9.346 2.925-12.901 1.569-1.911 3.617-2.95 5.92-3.012 11.932-.375 24.444 5.816 35.818 17.745Zm175.366 42.558c-.487-2.421-1.804-4.3-3.81-5.435-10.509-5.934-24.32-6.32-39.964-1.112-21.572 7.183-44.38 24.99-50.84 39.698L244 94.916l19.227 10.786.902-1.297c12.43-17.852 30.301-27.021 42.499-28.189 5.962-.569 10.892-.165 14.854.168 6.418.535 11.052.922 14.308-3.297 2.303-2.987 4.37-8.256 3.457-12.767Z"/>
  <path fill="#689753" d="M287.065 228.29c18.746 39.14 22.827 85.786 11.495 131.324-11.335 45.55-36.805 84.835-71.714 110.625C200.297 489.855 170.657 500 141.02 500a129.864 129.864 0 0 1-31.379-3.852C29.192 476.126-16.96 382.298 6.757 286.991c23.72-95.3 108.47-156.555 188.919-136.527 39.618 9.86 72.074 37.499 91.389 77.826Z"/>
  <path fill="#cbffb3" d="M257.964 247.568c-15.098-31.875-40.472-53.722-71.449-61.518a99.976 99.976 0 0 0-24.379-3.021c-55.717 0-107.658 46.729-123.505 111.111-8.871 36.044-5.68 72.947 8.986 103.911 15.098 31.875 40.473 53.723 71.449 61.517a99.952 99.952 0 0 0 24.379 3.021c55.715 0 107.656-46.729 123.504-111.111 8.873-36.042 5.682-72.945-8.985-103.911Z"/>
  <path fill="#f46964" d="M247.593 252.48c13.54 28.585 16.457 62.768 8.214 96.256-14.602 59.322-61.856 102.378-112.361 102.378-7.268 0-14.528-.9-21.579-2.674-27.589-6.943-50.276-26.583-63.879-55.301-13.539-28.584-16.457-62.768-8.214-96.256 14.602-59.322 61.857-102.379 112.362-102.379 7.268 0 14.528.9 21.579 2.674 27.59 6.944 50.276 26.584 63.878 55.302Z"/>
  <path d="M148.268 280.788c-2.671 3.114-11.941-.456-20.706-7.973-8.764-7.517-13.704-16.136-11.033-19.249 2.671-3.114 11.941.456 20.706 7.973 8.764 7.517 13.705 16.136 11.033 19.249Zm-22.915 33.271c.92-3.998-7.457-9.338-18.71-11.926-11.253-2.589-21.12-1.446-22.04 2.552-.92 3.998 7.457 9.337 18.71 11.926 11.253 2.589 21.12 1.446 22.04-2.551Zm-16.798 52.771c-11.157 2.974-19.345 8.598-18.289 12.562 1.056 3.964 10.957 4.767 22.115 1.793 11.157-2.973 19.346-8.598 18.289-12.561-1.057-3.964-10.958-4.767-22.115-1.793Zm93.133-86.71c11.355-2.098 19.955-7.069 19.21-11.103-.745-4.034-10.554-5.604-21.909-3.506-11.354 2.098-19.955 7.069-19.21 11.103.745 4.034 10.554 5.604 21.908 3.506Zm.877 51.902c-11.03-3.414-20.956-3.005-22.169.914-1.213 3.919 6.746 9.863 17.776 13.277 11.03 3.414 20.956 3.005 22.169-.914 1.213-3.919-6.746-9.863-17.776-13.277Zm-42.691 35.503c-2.905 2.897 1.351 11.873 9.504 20.049 8.154 8.176 17.119 12.455 20.023 9.558 2.905-2.897-1.351-11.873-9.504-20.049-8.154-8.176-17.119-12.454-20.023-9.558Z"/>
  <path fill="#588046" d="M164.72 129.457c11.827 0 23.642 1.448 35.114 4.304 37.922 9.438 69.903 33.183 91.912 67.665 1.769-7.653 2.797-15.589 2.797-23.78 0-58.165-47.152-105.318-105.317-105.318-48.718 0-89.593 33.126-101.624 78.048 23.845-13.408 50.153-20.919 77.119-20.919Z"/>
</svg>